<svg width="300" height="300" viewBox="0 0 300 300" fill="none" xmlns="http://www.w3.org/2000/svg"><path d="M122.148 197.788c-1.358-1.019-2.547-1.698-3.736-2.208-1.358-.509-2.547-.679-3.906-.679-2.717-.17-5.774.34-8.661 1.019-2.887.679-5.604 1.528-7.642 2.208a108.428 108.428 0 00-3.397 1.188l3.397 1.699c2.038.849 4.925 1.868 8.151 2.377 3.057.51 6.624.68 9.511-.17 2.887-.849 5.434-2.547 6.283-5.434z" fill="url(#paint0_linear)"/><path d="M113.318 185.051c1.188 2.547 2.717 4.925 4.925 6.623 1.019.849 2.207 1.359 3.566 1.698 1.189.17 2.547.17 3.906-.339 0-3.057-.679-5.435-2.038-7.473a25.047 25.047 0 00-4.925-5.434c-1.868-1.528-3.906-2.887-5.265-3.736-1.528-.849-2.377-1.529-2.377-1.529v.849c0 .51.17 1.359.34 2.378.169 1.868.849 4.416 1.868 6.963z" fill="url(#paint1_linear)"/><path d="M92.768 191.674c2.887-.169 5.435-1.188 7.133-3.566-1.358-2.547-3.566-3.906-6.114-4.755-2.547-.849-5.604-1.019-8.66-1.019-2.888-.17-5.945 0-8.152 0h-3.737l.85.849c.509.51 1.188 1.189 2.207 1.868 1.868 1.529 4.585 3.397 7.472 4.585 2.888 1.359 6.114 2.208 9.001 2.038z" fill="url(#paint2_linear)"/><path d="M98.203 180.466c1.698 2.038 3.906 3.396 6.793 3.226 1.189-2.717 1.019-5.434.17-7.812-.849-2.377-2.208-4.585-3.567-6.623-1.358-1.868-2.887-3.566-3.906-4.755-.51-.509-1.019-1.019-1.188-1.359l-.51-.509s-.17.34-.17.849c-.17.51-.34 1.359-.51 2.208-.339 1.868-.509 4.415 0 7.133.34 2.717 1.36 5.434 2.888 7.642z" fill="url(#paint3_linear)"/><path d="M63.049 159.747c-2.038-.68-3.397-1.019-3.397-1.019s.17.339.34.849c.34.509.68 1.359 1.189 2.208.51 1.019 1.188 2.038 1.868 3.226.34.51.849 1.189 1.188 1.699l.34.509.34.51c.34.339.51.679.849 1.019 2.378 2.887 5.265 4.925 8.152 5.944 2.887.849 5.774.679 8.151-1.189-.679-2.887-2.207-4.755-4.415-6.454-.51-.509-1.189-.849-1.698-1.188-.68-.34-1.19-.85-1.868-1.189-.68-.34-1.36-.849-2.038-1.189-.68-.34-1.359-.679-1.868-1.019a98.525 98.525 0 00-7.133-2.717z" fill="url(#paint4_linear)"/><path d="M82.918 164.842c.85 2.547 2.548 4.585 5.265 5.094 1.868-2.377 2.547-4.925 2.717-7.302.17-2.378-.17-4.585-.51-6.623-.169-.849-.339-2.208-.678-3.227-.34-1.019-.68-2.038-1.02-2.887-.339-.849-.679-1.529-.848-2.038-.17-.509-.34-.679-.34-.679s-.17.339-.51.679c-.34.509-.679 1.189-1.188 2.038-.85 1.698-2.038 4.076-2.718 6.793l-.51 2.038c-.169.679-.169 1.359-.339 2.038v2.038c.51.849.51 1.528.68 2.038z" fill="url(#paint5_linear)"/><path d="M59.992 149.727l1.529 1.528c.509.51 1.188.849 1.698 1.359 2.377 1.528 4.925 2.208 7.812 1.359.17-1.359.17-2.718-.17-3.906-.17-.68-.51-1.189-.85-1.699-.339-.509-.678-1.019-1.018-1.698-1.529-2.208-3.906-3.906-6.284-5.604-2.377-1.699-4.755-3.057-6.623-4.076-1.868-1.019-3.057-1.698-3.057-1.698s0 .339.17 1.019c.17.679.34 1.528.85 2.547.678 2.038 1.697 4.925 3.396 7.472a35.3 35.3 0 002.547 3.397z" fill="url(#paint6_linear)"/><path d="M75.446 148.538c.51 1.189 1.359 2.208 2.547 2.887 2.548-1.528 4.076-3.736 4.925-6.114.17-.679.34-1.188.51-1.868 0-.339.17-.679.17-1.019 0-.339.17-.679.17-1.019.17-1.358.17-2.547.17-3.736-.17-2.377-.34-4.755-.68-6.453-.17-.849-.34-1.529-.34-2.038 0-.51-.17-.679-.17-.679l-.849.849c-.34.339-1.019 1.019-1.528 1.698-1.189 1.528-2.717 3.566-3.906 6.114-1.189 2.377-1.868 5.264-1.868 7.812 0 .679.17 1.358.17 1.868.17.679.34 1.189.68 1.698z" fill="url(#paint7_linear)"/><path d="M54.897 126.121c.34.679.68 1.359 1.189 1.868.51.51 1.019 1.189 1.528 1.699 2.038 2.037 4.586 3.056 7.473 2.887.51-1.359.679-2.718.51-3.906 0-.68-.17-1.189-.34-1.869-.34-.679-.51-1.358-.85-1.868a19.119 19.119 0 00-2.038-3.566c-.51-.509-.849-1.189-1.358-1.698-.51-.51-.85-1.019-1.359-1.699-1.868-2.207-4.076-4.075-5.604-5.604-1.698-1.358-2.717-2.208-2.717-2.208s0 1.529.17 3.737c0 1.188.34 2.377.509 3.736.17.679.34 1.358.51 2.208.17.679.34 1.528.679 2.207.34 1.359 1.019 2.718 1.698 4.076z" fill="url(#paint8_linear)"/><path d="M72.22 130.876c2.886-1.019 4.755-2.887 5.943-5.095.34-.509.51-1.019.85-1.698.34-.509.509-1.189.679-1.698.34-1.189.68-2.378.849-3.566.17-1.189.51-2.378.51-3.397 0-.509.17-1.019.17-1.528 0-.51 0-.85.169-1.359.17-1.698.17-2.717.17-2.717s-1.02.679-2.717 1.698c-.34.34-.85.679-1.19 1.019-.509.34-.848.679-1.358 1.189-.849.849-1.698 1.698-2.547 2.887-.51.509-.85 1.019-1.189 1.698-.17.34-.34.51-.51.849-.17.34-.34.68-.509.849-.51 1.189-1.019 2.548-1.359 3.737-.17.679-.17 1.358-.17 2.037 0 .68.17 1.189.34 1.869.17 1.188.85 2.207 1.868 3.226z" fill="url(#paint9_linear)"/><path d="M61.86 95.043c-.68-1.189-1.359-2.548-2.038-3.567-.68-1.188-1.359-2.207-1.868-3.056-1.189-1.869-1.868-2.888-1.868-2.888s-.34 1.36-.85 3.567c-.339 1.019-.509 2.208-.509 3.566 0 .68-.17 1.359-.17 2.208 0 .68 0 1.528.17 2.208.17 1.528.34 3.057.68 4.585.509 1.528 1.018 2.887 1.698 4.076 1.358 2.377 3.736 4.076 6.623 4.585.34-.679.68-1.189.85-1.868.169-.679.339-1.189.509-1.868.17-1.189.17-2.547-.17-3.736-.17-1.359-.68-2.548-1.189-3.906-.51-1.359-1.189-2.548-1.868-3.906z" fill="url(#paint10_linear)"/><path d="M77.824 106.421c.849-.849 1.698-1.868 2.207-2.887.68-1.019 1.359-2.038 1.868-3.057.34-.51.51-1.019.68-1.528.17-.51.51-1.019.68-1.528.339-1.02.678-1.869 1.018-2.548l.85-2.547s-1.19.34-3.058 1.019c-1.868.679-4.076 1.868-6.283 3.396-.51.34-1.19.85-1.529 1.189-.51.51-1.019.85-1.358 1.359-.85 1.019-1.699 2.038-2.208 3.226-.51 1.189-.85 2.378-.85 3.567 0 .679 0 1.188.17 1.868.17.679.51 1.189.85 1.868 3.057-.34 5.095-1.698 6.963-3.397z" fill="url(#paint11_linear)"/><path d="M69.163 87.23c.34-.509.679-1.018 1.019-1.697.17-.51.51-1.19.51-1.868.169-.68.169-1.19.169-1.869.17-1.358 0-2.717-.17-4.076-.17-1.358-.51-2.886-.849-4.245-.68-2.887-1.528-5.435-2.208-7.472a107.941 107.941 0 00-1.189-3.397s-.17.34-.509.85c-.17.848-.68 1.528-1.019 2.546-1.019 2.038-1.868 4.756-2.547 7.813-.17 1.528-.34 3.056-.34 4.585 0 .68 0 1.528.17 2.208.17.679.17 1.358.51 2.037.339 1.36 1.018 2.548 1.867 3.567.85 1.019 2.038 1.868 3.397 2.377.34-.34.849-.849 1.189-1.358z" fill="url(#paint12_linear)"/><path d="M92.599 76.532l.34-.68h-.85c-.51 0-1.358 0-2.208.17-1.019.17-2.038.34-3.226.51-.51.17-1.19.34-1.868.51-.68.169-1.19.339-1.869.678-1.188.51-2.547 1.02-3.566 1.868-1.019.68-2.038 1.699-2.887 2.548-.51.51-.68 1.019-1.019 1.528-.34.51-.51 1.19-.68 1.699-.17.51-.17 1.188-.17 1.868 0 .679.17 1.358.34 1.868 1.529.17 2.888.17 4.076-.17 1.19-.34 2.378-.68 3.567-1.359l1.528-1.019c.17-.17.51-.34.68-.51.17-.169.509-.339.679-.509 1.019-.849 1.698-1.698 2.547-2.547.85-.85 1.529-1.698 2.038-2.547.17-.17.34-.34.51-.68l.51-.51c.339-.339.509-.678.678-1.018l.85-1.698z" fill="url(#paint13_linear)"/><path d="M77.314 69.06c1.359-.68 2.208-1.53 2.887-2.548.85-1.02 1.359-2.038 1.699-3.397.849-2.547.849-5.434.849-8.321v-2.208c0-.68 0-1.359-.17-2.038-.17-1.358-.17-2.547-.34-3.566-.17-2.038-.51-3.397-.51-3.397s-.17.34-.679.68c-.34.509-1.019 1.188-1.698 2.037-.68.85-1.359 1.868-2.038 3.057-.68 1.19-1.358 2.378-2.038 3.906-.51 1.359-1.019 2.887-1.358 4.246-.34 1.528-.51 2.887-.34 4.246.17 3.057 1.359 5.434 3.736 7.302z" fill="url(#paint14_linear)"/><path d="M98.033 67.53c1.02-.678 1.868-1.358 2.717-2.037.85-.68 1.529-1.359 2.038-1.868l1.359-1.359.509-.51s-1.188-.339-3.226-.509c-.849-.34-2.038-.34-3.227-.34s-2.547.17-3.906.34c-2.717.34-5.265 1.359-7.303 2.887-1.019.85-1.868 1.699-2.377 2.718-.51 1.019-.85 2.377-.68 3.736 2.718 1.189 5.265 1.019 7.643.34 1.189-.34 2.377-.85 3.396-1.36l3.057-2.037z" fill="url(#paint15_linear)"/><path d="M92.768 179.956c7.812 6.454 17.323 10.869 26.663 14.775 7.642 3.057 17.492 8.152 27.512 12.907-9.001 2.717-17.832 5.095-24.964 6.284-1.019.169 3.906 5.094 4.755 4.755 8.321-2.548 16.643-5.605 24.964-8.831 9.001 4.076 18.002 7.642 25.304 8.831.85.17 3.737-4.755 2.887-4.925-6.962-1.189-15.114-3.227-23.436-5.944 13.926-5.774 27.342-12.398 38.891-18.681 12.567-6.793 21.907-16.473 28.191-29.55 5.774-11.888 9.85-25.134 10.359-38.381.85-18.341-5.434-36.513-14.944-51.967-2.887-4.585-5.944-9-9.341-13.246.34-1.19.34-2.378.17-3.397-.17-1.189-.679-2.547-1.528-3.566-1.529-2.208-3.737-4.076-6.284-5.435-2.378-1.358-4.925-2.207-6.793-2.547-1.019-.17-1.698-.34-2.208-.51h-.849v.17c0 .17.17.34.34.51.169.51.679 1.189 1.019 2.038.849 1.698 2.207 3.906 3.566 5.944.679 1.019 1.528 2.038 2.378 3.056.339.51.849 1.02 1.358 1.36.51.509.849.848 1.359 1.188 1.019.68 2.038 1.189 3.226 1.528.85.17 1.869.34 2.888.34 6.623 7.982 12.057 17.152 16.303 26.323 5.265 11.718 8.152 24.455 7.812 37.362-.34 14.096-4.925 28.361-11.378 40.758-4.925 9.681-12.058 17.662-21.229 23.437-8.151 5.264-17.152 9.17-25.983 13.076-6.624 2.887-14.605 5.774-22.587 8.492-17.153-5.775-35.154-13.587-47.552-20.55-6.453-3.736-12.397-8.151-17.322-13.925-4.925-5.605-8.322-12.398-11.209-19.361-5.264-13.076-8.66-26.493-7.981-40.758 1.019-16.473 7.472-32.437 16.473-46.023 2.377-3.566 4.925-6.963 7.642-10.36 1.019 0 1.868 0 2.717-.34 1.189-.339 2.208-.848 3.227-1.528.51-.34 1.019-.679 1.359-1.188.509-.34.849-.85 1.358-1.359.849-1.019 1.698-2.038 2.378-3.057 1.528-2.208 2.717-4.245 3.566-5.944.509-.849.849-1.528 1.019-2.038.17-.17.17-.51.34-.51V39h-.849c-.51 0-1.359.17-2.208.51-1.868.509-4.416 1.358-6.793 2.547-2.378 1.358-4.755 3.057-6.284 5.434-.68 1.02-1.189 2.378-1.528 3.567-.17 1.019-.17 2.207.17 3.396-6.454 7.642-11.719 16.304-15.794 25.135-5.095 10.868-8.152 22.587-8.492 34.474-.51 13.756 3.227 26.833 8.322 39.57 4.585 10.02 10.529 19.36 19.02 26.323z" fill="url(#paint16_linear)"/><path d="M193.306 204.921c3.057-.51 5.944-1.529 8.152-2.378 2.038-.849 3.396-1.698 3.396-1.698s-1.358-.51-3.396-1.189-4.755-1.528-7.643-2.208c-2.887-.679-5.943-1.188-8.661-1.019-1.358 0-2.717.34-3.906.68-1.358.509-2.377 1.188-3.736 2.207.849 2.887 3.397 4.756 6.284 5.605 3.057.679 6.453.509 9.51 0z" fill="url(#paint17_linear)"/><path d="M177.852 194.561c1.188-.17 2.377-.849 3.566-1.698 2.208-1.528 3.736-4.076 4.925-6.623 1.189-2.548 1.698-5.095 2.038-6.963.17-1.019.17-1.698.339-2.378v-.849s-1.019.51-2.377 1.359c-1.529.849-3.397 2.208-5.265 3.736-1.868 1.528-3.736 3.397-4.925 5.434-1.358 2.038-2.038 4.416-2.038 7.473 1.189.679 2.548.849 3.737.509z" fill="url(#paint18_linear)"/><path d="M214.534 183.692c-2.887.17-5.944.34-8.661 1.019-2.547.85-4.755 2.208-6.114 4.756 1.699 2.377 4.246 3.566 7.133 3.566 2.887.17 6.114-.679 9.001-2.038 2.887-1.359 5.604-3.057 7.472-4.585 1.019-.68 1.698-1.529 2.208-1.868l.849-.85h-3.736c-2.378 0-5.265-.169-8.152 0z" fill="url(#paint19_linear)"/><path d="M194.664 185.051c2.888.17 5.095-1.189 6.794-3.227 1.698-2.038 2.547-4.755 3.056-7.472.34-2.717.34-5.265 0-7.133-.169-1.019-.339-1.698-.509-2.208-.17-.509-.17-.849-.17-.849l-.509.51c-.34.339-.68.849-1.189 1.358-1.019 1.189-2.548 2.887-3.906 4.756-1.359 1.868-2.717 4.075-3.567 6.623-.849 2.208-1.188 4.925 0 7.642z" fill="url(#paint20_linear)"/><path d="M233.725 170.276c.339-.34.509-.679.849-1.019l.339-.509.34-.51c.34-.509.849-1.189 1.189-1.698.679-1.189 1.359-2.208 1.868-3.227.509-1.019.849-1.698 1.189-2.208.339-.509.339-.849.339-.849s-1.358.34-3.396 1.019c-2.038.679-4.755 1.529-7.303 2.717-.679.34-1.358.68-1.868 1.019-.679.34-1.358.85-2.038 1.189-.679.34-1.358.849-1.868 1.189-.679.34-1.189.849-1.698 1.189-2.208 1.698-3.736 3.736-4.416 6.453 2.378 1.868 5.265 2.038 8.152 1.189 2.887-.849 5.944-3.057 8.322-5.944z" fill="url(#paint21_linear)"/><path d="M216.402 158.388c-.679-2.717-1.868-5.095-2.717-6.793-.51-.849-.849-1.528-1.189-2.038-.34-.509-.509-.679-.509-.679l-.34.679c-.17.51-.51 1.189-.849 2.038-.34.849-.679 1.868-1.019 2.887-.34 1.019-.679 2.378-.679 3.227-.17 1.868-.51 4.246-.51 6.623.17 2.378.679 4.925 2.717 7.303 2.718-.68 4.586-2.718 5.265-5.095.17-.679.34-1.189.34-1.868v-2.038c0-.679-.17-1.359-.34-2.038.17-.849 0-1.528-.17-2.208z" fill="url(#paint22_linear)"/><path d="M246.462 137.5c.17-.68.17-1.019.17-1.019s-1.189.679-3.057 1.698c-1.868 1.019-4.246 2.547-6.624 4.076-2.377 1.698-4.755 3.566-6.283 5.604-.34.51-.679 1.019-1.019 1.698-.34.51-.51 1.189-.679 1.699-.34 1.188-.51 2.547-.17 3.906 2.887.849 5.434.169 7.812-1.359.509-.34 1.189-.849 1.698-1.359l1.528-1.528c1.019-1.189 1.869-2.378 2.718-3.736 1.698-2.548 2.717-5.265 3.396-7.473.17-.679.34-1.528.51-2.207z" fill="url(#paint23_linear)"/><path d="M221.667 152.954c1.189-.849 2.038-1.868 2.547-2.887.34-.51.51-1.189.68-1.699.169-.679.339-1.188.339-1.868 0-2.547-.679-5.434-1.868-7.812-1.189-2.547-2.717-4.585-3.906-6.114-.679-.679-1.189-1.358-1.528-1.698l-.68-.679s0 .34-.169.679c-.17.51-.34 1.189-.34 2.038-.34 1.698-.51 3.906-.679 6.454 0 1.188 0 2.547.169 3.736 0 .339.17.679.17 1.019 0 .339.17.679.17 1.019.17.679.34 1.188.51 1.868.509 2.207 2.038 4.415 4.585 5.944z" fill="url(#paint24_linear)"/><path d="M240.178 119.498c-.509.509-1.019 1.019-1.359 1.698-.509.51-.849 1.189-1.358 1.698-.849 1.189-1.698 2.378-2.208 3.567a8.268 8.268 0 00-.679 1.868c-.17.679-.34 1.189-.34 1.868-.17 1.189 0 2.547.51 3.906 2.887.34 5.434-.849 7.472-2.887.509-.51 1.019-1.019 1.528-1.698.51-.51.85-1.189 1.189-1.868.679-1.359 1.359-2.718 1.868-4.246.34-.679.51-1.529.68-2.208.169-.679.339-1.358.509-2.208.34-1.358.51-2.717.51-3.736.169-2.208.169-3.736.169-3.736s-1.019.849-2.547 2.378c-1.868 1.528-4.076 3.396-5.944 5.604z" fill="url(#paint25_linear)"/><path d="M229.479 129.008c.17-.679.34-1.189.34-1.868s0-1.189-.17-1.868c-.17-1.189-.68-2.547-1.359-3.736-.17-.34-.34-.679-.509-.849-.17-.34-.34-.51-.51-.849-.339-.51-.849-1.189-1.189-1.699-.849-1.019-1.698-2.038-2.547-2.887-.34-.339-.849-.849-1.359-1.188-.509-.34-.849-.68-1.188-1.019-1.529-1.189-2.718-1.699-2.718-1.699s0 1.019.17 2.718c0 .339.17.849.17 1.358 0 .51 0 1.019.17 1.529.17 1.019.34 2.207.509 3.396.17 1.189.51 2.378.849 3.566.17.51.51 1.189.68 1.699.17.509.509 1.189.849 1.698 1.189 2.208 3.057 4.076 5.944 5.095.849-1.189 1.528-2.208 1.868-3.397z" fill="url(#paint26_linear)"/><path d="M234.744 104.214c-.34 1.358-.34 2.547-.17 3.736.17.679.339 1.189.509 1.868.17.679.51 1.189.849 1.868 2.887-.34 5.265-2.038 6.624-4.585.679-1.189 1.358-2.548 1.698-4.076.339-1.529.509-3.057.679-4.586 0-.849.17-1.528.17-2.207 0-.68 0-1.529-.17-2.208-.17-1.359-.339-2.717-.339-3.906-.51-2.208-.85-3.566-.85-3.566s-.849 1.188-1.868 2.887c-.509.849-1.189 1.868-1.868 3.057-.679 1.188-1.358 2.377-2.038 3.736-.679 1.189-1.358 2.547-1.868 3.906-.679 1.528-1.189 2.887-1.358 4.076z" fill="url(#paint27_linear)"/><path d="M229.139 103.874c-.509-1.189-1.358-2.208-2.207-3.227-.51-.509-.85-1.019-1.359-1.359-.51-.51-1.019-.849-1.529-1.188-2.207-1.529-4.415-2.718-6.283-3.397a50.038 50.038 0 00-3.057-1.019l.849 2.547c.17.85.51 1.699 1.019 2.548.17.51.34 1.019.679 1.528.17.51.51 1.019.68 1.529.509 1.019 1.019 2.038 1.868 3.057.679 1.019 1.358 2.038 2.208 2.887 1.868 1.698 3.906 3.057 6.962 3.396.34-.509.68-1.189.85-1.868.169-.679.169-1.189.339-1.868-.339-1.189-.509-2.378-1.019-3.566z" fill="url(#paint28_linear)"/><path d="M233.215 64.134s-.509 1.359-1.188 3.397c-.68 2.038-1.529 4.755-2.208 7.472-.34 1.359-.68 2.887-.849 4.246-.17 1.359-.34 2.717-.17 4.076 0 .68.17 1.358.17 1.868.169.68.339 1.189.509 1.868.17.51.51 1.189 1.019 1.698.34.51.849 1.02 1.359 1.529 1.358-.51 2.547-1.359 3.396-2.378.849-1.019 1.529-2.208 1.868-3.566l.51-2.038c.17-.68.17-1.529.17-2.208 0-1.528-.17-3.057-.34-4.585-.679-2.887-1.528-5.774-2.547-7.812-.51-1.02-.85-1.868-1.189-2.378-.34-.849-.51-1.189-.51-1.189z" fill="url(#paint29_linear)"/><path d="M224.214 85.193l-1.019-1.529c-.849-1.019-1.868-1.868-2.887-2.547-1.019-.68-2.377-1.359-3.566-1.868-.679-.17-1.189-.51-1.868-.68-.68-.17-1.189-.339-1.868-.509-1.189-.34-2.378-.51-3.227-.51-1.019-.17-1.698-.17-2.208-.17h-.849s.17.17.34.68c.17.34.509 1.02 1.019 1.698.169.34.509.68.679 1.02l.509.509c.17.17.34.34.51.68l2.038 2.547c.679.849 1.528 1.698 2.547 2.547.17.17.51.34.68.51.169.17.509.34.679.509l1.528 1.019c1.019.68 2.208 1.019 3.567 1.358 1.188.34 2.547.34 4.076.17.169-.679.339-1.358.339-1.868 0-.68 0-1.189-.17-1.868-.339-.68-.509-1.189-.849-1.698z" fill="url(#paint30_linear)"/><path d="M222.346 70.418c2.378-1.868 3.397-4.246 3.736-7.133 0-1.358-.169-2.887-.339-4.245-.34-1.529-.849-2.887-1.359-4.246-.509-1.359-1.358-2.717-2.038-3.906-.679-1.189-1.358-2.208-2.038-3.057-.679-.849-1.188-1.528-1.698-2.038-.34-.51-.679-.68-.679-.68s-.17 1.36-.51 3.397c-.17 1.02-.17 2.208-.339 3.567 0 .68-.17 1.358-.17 2.038 0 .679 0 1.358-.17 2.207 0 2.887.17 5.775.849 8.322.34 1.189.849 2.377 1.698 3.396.849.85 1.868 1.699 3.057 2.378z" fill="url(#paint31_linear)"/><path d="M212.666 65.493c-2.038-1.528-4.755-2.378-7.302-2.887-1.359-.17-2.548-.34-3.906-.34-1.189 0-2.378 0-3.227.17-1.868.17-3.227.51-3.227.51l.51.509 1.358 1.359c.51.51 1.359 1.188 2.038 1.868.849.679 1.698 1.358 2.717 2.038 1.019.679 2.038 1.358 3.057 1.868 1.019.68 2.208 1.019 3.397 1.358 2.377.68 4.925.85 7.642-.34 0-1.358-.17-2.547-.679-3.735-.51-.68-1.359-1.699-2.378-2.378z" fill="url(#paint32_linear)"/><path d="M198.225 136.356c0 3.575-2.438 8.126-5.445 10.076l-37.948 25.272c-3.007 1.951-7.883 1.951-10.808 0l-37.868-25.272c-3.006-1.95-5.444-6.501-5.444-10.076v-35.755c0-3.575 2.438-8.126 5.444-10.076l37.868-25.353c3.007-1.95 7.882-1.95 10.889 0l37.949 25.272c3.006 1.95 5.444 6.5 5.444 10.076v35.836h-.081z" fill="#F38844"/><path d="M136.467 107.103h26.003v4.875h-26.003v-4.875zm-3.251 8.126h32.505v4.875h-32.505v-4.875zm-4.063 8.126h40.631v4.875h-40.631v-4.875zm20.316-34.942c16.577 0 30.066 13.489 30.066 30.066 0 16.577-13.489 30.067-30.066 30.067-16.578 0-30.067-13.49-30.067-30.067 0-16.577 13.489-30.066 30.067-30.066zm0-2.438c-17.959 0-32.505 14.545-32.505 32.504 0 17.959 14.546 32.504 32.505 32.504 17.958 0 32.504-14.545 32.504-32.504 0-17.959-14.546-32.504-32.504-32.504z" fill="#fff"/><path opacity=".08" d="M192.78 90.525l-37.867-25.353c-1.463-.976-3.413-1.463-5.445-1.463v109.539c1.951 0 3.901-.487 5.445-1.462l37.949-25.272c3.006-1.951 5.444-6.501 5.444-10.077v-35.836c-.081-3.575-2.519-8.126-5.526-10.076z" fill="#000"/><path d="M149.468 66.96c1.382 0 2.682.324 3.576.974l37.949 25.273c2.112 1.381 3.981 4.875 3.981 7.394v35.755c0 2.519-1.869 6.013-3.981 7.395l-37.949 25.272c-.894.569-2.194.975-3.576.975-1.381 0-2.681-.325-3.575-.975l-37.949-25.272c-2.113-1.382-3.982-4.876-3.982-7.395v-35.755c0-2.519 1.869-6.013 3.982-7.394l37.949-25.273c.894-.65 2.194-.975 3.575-.975zm0-3.251c-1.95 0-3.9.487-5.444 1.463l-37.868 25.353c-3.006 1.95-5.444 6.5-5.444 10.076v35.755c0 3.575 2.438 8.126 5.444 10.076l37.949 25.272c1.463.976 3.413 1.463 5.445 1.463 2.031 0 3.9-.487 5.444-1.463l37.949-25.272c3.007-1.95 5.444-6.501 5.444-10.076v-35.755c0-3.575-2.437-8.126-5.444-10.076l-38.03-25.353c-1.544-.976-3.494-1.463-5.445-1.463zM65.848 267v-20.79h12.69v2.49h-9.78v6.18h8.7v2.43h-8.7v7.2h10.53V267h-13.44zm22.538.3c-1.72-.04-2.94-.41-3.66-1.11-.72-.7-1.08-1.79-1.08-3.27V244.2l2.79-.48v18.75c0 .46.04.84.12 1.14.08.3.21.54.39.72.18.18.42.32.72.42.3.08.67.15 1.11.21l-.39 2.34zm7.214-.3h-2.79v-15.6h2.79V267zm-1.41-18.42c-.5 0-.93-.16-1.29-.48-.34-.34-.51-.79-.51-1.35s.17-1 .51-1.32c.36-.34.79-.51 1.29-.51s.92.17 1.26.51c.36.32.54.76.54 1.32s-.18 1.01-.54 1.35c-.34.32-.76.48-1.26.48zm9.717 2.82h5.91v2.34h-5.91v7.2c0 .78.06 1.43.18 1.95.12.5.3.9.54 1.2.24.28.54.48.9.6s.78.18 1.26.18c.84 0 1.51-.09 2.01-.27.52-.2.88-.34 1.08-.42l.54 2.31c-.28.14-.77.31-1.47.51-.7.22-1.5.33-2.4.33-1.06 0-1.94-.13-2.64-.39-.68-.28-1.23-.69-1.65-1.23-.42-.54-.72-1.2-.9-1.98-.16-.8-.24-1.72-.24-2.76v-13.92l2.79-.48v4.83zm9.198 7.83c0-1.38.2-2.58.6-3.6.4-1.04.93-1.9 1.59-2.58.66-.68 1.42-1.19 2.28-1.53.86-.34 1.74-.51 2.64-.51 2.1 0 3.71.66 4.83 1.98 1.12 1.3 1.68 3.29 1.68 5.97v.48c0 .18-.01.35-.03.51h-10.68c.12 1.62.59 2.85 1.41 3.69.82.84 2.1 1.26 3.84 1.26.98 0 1.8-.08 2.46-.24.68-.18 1.19-.35 1.53-.51l.39 2.34c-.34.18-.94.37-1.8.57-.84.2-1.8.3-2.88.3-1.36 0-2.54-.2-3.54-.6-.98-.42-1.79-.99-2.43-1.71a7.107 7.107 0 01-1.44-2.55c-.3-1-.45-2.09-.45-3.27zm10.71-1.53c.02-1.26-.3-2.29-.96-3.09-.64-.82-1.53-1.23-2.67-1.23-.64 0-1.21.13-1.71.39-.48.24-.89.56-1.23.96-.34.4-.61.86-.81 1.38-.18.52-.3 1.05-.36 1.59h7.74zm29.731 9.3c-.34-.9-.66-1.78-.96-2.64-.3-.88-.61-1.77-.93-2.67h-9.42l-1.89 5.31h-3.03c.8-2.2 1.55-4.23 2.25-6.09.7-1.88 1.38-3.66 2.04-5.34.68-1.68 1.35-3.28 2.01-4.8.66-1.54 1.35-3.06 2.07-4.56h2.67c.72 1.5 1.41 3.02 2.07 4.56.66 1.52 1.32 3.12 1.98 4.8.68 1.68 1.37 3.46 2.07 5.34.7 1.86 1.45 3.89 2.25 6.09h-3.18zm-2.73-7.71c-.64-1.74-1.28-3.42-1.92-5.04-.62-1.64-1.27-3.21-1.95-4.71-.7 1.5-1.37 3.07-2.01 4.71-.62 1.62-1.24 3.3-1.86 5.04h7.74zm21.433 7.26c-.64.16-1.49.33-2.55.51-1.04.18-2.25.27-3.63.27-1.2 0-2.21-.17-3.03-.51-.82-.36-1.48-.86-1.98-1.5s-.86-1.39-1.08-2.25c-.22-.88-.33-1.85-.33-2.91v-8.76h2.79v8.16c0 1.9.3 3.26.9 4.08.6.82 1.61 1.23 3.03 1.23.3 0 .61-.01.93-.03.32-.02.62-.04.9-.06.28-.04.53-.07.75-.09.24-.04.41-.08.51-.12V251.4h2.79v15.15zm8.317-15.15h5.91v2.34h-5.91v7.2c0 .78.06 1.43.18 1.95.12.5.3.9.54 1.2.24.28.54.48.9.6s.78.18 1.26.18c.84 0 1.51-.09 2.01-.27.52-.2.88-.34 1.08-.42l.54 2.31c-.28.14-.77.31-1.47.51-.7.22-1.5.33-2.4.33-1.06 0-1.94-.13-2.64-.39-.68-.28-1.23-.69-1.65-1.23-.42-.54-.72-1.2-.9-1.98-.16-.8-.24-1.72-.24-2.76v-13.92l2.79-.48v4.83zm10.36 15.6v-22.8l2.79-.48v7.98c.52-.2 1.07-.35 1.65-.45.6-.12 1.19-.18 1.77-.18 1.24 0 2.27.18 3.09.54.82.34 1.47.83 1.95 1.47.5.62.85 1.37 1.05 2.25.2.88.3 1.85.3 2.91V267h-2.79v-8.16c0-.96-.07-1.78-.21-2.46-.12-.68-.33-1.23-.63-1.65-.3-.42-.7-.72-1.2-.9-.5-.2-1.12-.3-1.86-.3-.3 0-.61.02-.93.06-.32.04-.63.09-.93.15-.28.04-.54.09-.78.15-.22.06-.38.11-.48.15V267h-2.79zm31.809-7.8c0 1.24-.18 2.36-.54 3.36-.36 1-.87 1.86-1.53 2.58-.64.72-1.41 1.28-2.31 1.68-.9.38-1.88.57-2.94.57s-2.04-.19-2.94-.57c-.9-.4-1.68-.96-2.34-1.68-.64-.72-1.14-1.58-1.5-2.58-.36-1-.54-2.12-.54-3.36 0-1.22.18-2.33.54-3.33.36-1.02.86-1.89 1.5-2.61.66-.72 1.44-1.27 2.34-1.65.9-.4 1.88-.6 2.94-.6s2.04.2 2.94.6c.9.38 1.67.93 2.31 1.65.66.72 1.17 1.59 1.53 2.61.36 1 .54 2.11.54 3.33zm-2.91 0c0-1.76-.4-3.15-1.2-4.17-.78-1.04-1.85-1.56-3.21-1.56-1.36 0-2.44.52-3.24 1.56-.78 1.02-1.17 2.41-1.17 4.17 0 1.76.39 3.16 1.17 4.2.8 1.02 1.88 1.53 3.24 1.53 1.36 0 2.43-.51 3.21-1.53.8-1.04 1.2-2.44 1.2-4.2zm13.495-8.13c.24 0 .51.02.81.06.32.02.63.06.93.12.3.04.57.09.81.15.26.04.45.08.57.12l-.48 2.43c-.22-.08-.59-.17-1.11-.27-.5-.12-1.15-.18-1.95-.18-.52 0-1.04.06-1.56.18-.5.1-.83.17-.99.21V267h-2.79v-14.94c.66-.24 1.48-.46 2.46-.66.98-.22 2.08-.33 3.3-.33z" fill="#F38844"/><defs><linearGradient id="paint0_linear" x1="108.477" y1="194.868" x2="108.477" y2="203.817" gradientUnits="userSpaceOnUse"><stop stop-color="#F38844"/><stop offset="1" stop-color="#F38844" stop-opacity=".51"/></linearGradient><linearGradient id="paint1_linear" x1="118.412" y1="174.861" x2="118.412" y2="193.474" gradientUnits="userSpaceOnUse"><stop stop-color="#F38844"/><stop offset="1" stop-color="#F38844" stop-opacity=".51"/></linearGradient><linearGradient id="paint2_linear" x1="86.57" y1="182.258" x2="86.57" y2="191.696" gradientUnits="userSpaceOnUse"><stop stop-color="#F38844"/><stop offset="1" stop-color="#F38844" stop-opacity=".51"/></linearGradient><linearGradient id="paint3_linear" x1="100.42" y1="162.634" x2="100.42" y2="183.707" gradientUnits="userSpaceOnUse"><stop stop-color="#F38844"/><stop offset="1" stop-color="#F38844" stop-opacity=".51"/></linearGradient><linearGradient id="paint4_linear" x1="70.861" y1="158.728" x2="70.861" y2="175.181" gradientUnits="userSpaceOnUse"><stop stop-color="#F38844"/><stop offset="1" stop-color="#F38844" stop-opacity=".51"/></linearGradient><linearGradient id="paint5_linear" x1="86.592" y1="147.18" x2="86.592" y2="169.936" gradientUnits="userSpaceOnUse"><stop stop-color="#F38844"/><stop offset="1" stop-color="#F38844" stop-opacity=".51"/></linearGradient><linearGradient id="paint6_linear" x1="62.086" y1="135.292" x2="62.086" y2="154.342" gradientUnits="userSpaceOnUse"><stop stop-color="#F38844"/><stop offset="1" stop-color="#F38844" stop-opacity=".51"/></linearGradient><linearGradient id="paint7_linear" x1="79.267" y1="128.499" x2="79.267" y2="151.425" gradientUnits="userSpaceOnUse"><stop stop-color="#F38844"/><stop offset="1" stop-color="#F38844" stop-opacity=".51"/></linearGradient><linearGradient id="paint8_linear" x1="58.495" y1="110.157" x2="58.495" y2="132.593" gradientUnits="userSpaceOnUse"><stop stop-color="#F38844"/><stop offset="1" stop-color="#F38844" stop-opacity=".51"/></linearGradient><linearGradient id="paint9_linear" x1="75.786" y1="109.818" x2="75.786" y2="130.876" gradientUnits="userSpaceOnUse"><stop stop-color="#F38844"/><stop offset="1" stop-color="#F38844" stop-opacity=".51"/></linearGradient><linearGradient id="paint10_linear" x1="59.878" y1="85.532" x2="59.878" y2="110.327" gradientUnits="userSpaceOnUse"><stop stop-color="#F38844"/><stop offset="1" stop-color="#F38844" stop-opacity=".51"/></linearGradient><linearGradient id="paint11_linear" x1="77.484" y1="92.326" x2="77.484" y2="109.818" gradientUnits="userSpaceOnUse"><stop stop-color="#F38844"/><stop offset="1" stop-color="#F38844" stop-opacity=".51"/></linearGradient><linearGradient id="paint12_linear" x1="66.481" y1="62.606" x2="66.481" y2="88.589" gradientUnits="userSpaceOnUse"><stop stop-color="#F38844"/><stop offset="1" stop-color="#F38844" stop-opacity=".51"/></linearGradient><linearGradient id="paint13_linear" x1="83.768" y1="75.852" x2="83.768" y2="89.21" gradientUnits="userSpaceOnUse"><stop stop-color="#F38844"/><stop offset="1" stop-color="#F38844" stop-opacity=".51"/></linearGradient><linearGradient id="paint14_linear" x1="78.13" y1="43.585" x2="78.13" y2="69.059" gradientUnits="userSpaceOnUse"><stop stop-color="#F38844"/><stop offset="1" stop-color="#F38844" stop-opacity=".51"/></linearGradient><linearGradient id="paint15_linear" x1="94.275" y1="60.908" x2="94.275" y2="71.46" gradientUnits="userSpaceOnUse"><stop stop-color="#F38844"/><stop offset="1" stop-color="#F38844" stop-opacity=".51"/></linearGradient><linearGradient id="paint16_linear" x1="149.675" y1="39" x2="149.675" y2="218.693" gradientUnits="userSpaceOnUse"><stop stop-color="#F38844"/><stop offset="1" stop-color="#F38844" stop-opacity=".51"/></linearGradient><linearGradient id="paint17_linear" x1="191.183" y1="196.396" x2="191.183" y2="205.369" gradientUnits="userSpaceOnUse"><stop stop-color="#F38844"/><stop offset="1" stop-color="#F38844" stop-opacity=".51"/></linearGradient><linearGradient id="paint18_linear" x1="181.418" y1="176.05" x2="181.418" y2="194.731" gradientUnits="userSpaceOnUse"><stop stop-color="#F38844"/><stop offset="1" stop-color="#F38844" stop-opacity=".51"/></linearGradient><linearGradient id="paint19_linear" x1="213.091" y1="183.617" x2="213.091" y2="193.054" gradientUnits="userSpaceOnUse"><stop stop-color="#F38844"/><stop offset="1" stop-color="#F38844" stop-opacity=".51"/></linearGradient><linearGradient id="paint20_linear" x1="199.332" y1="164.162" x2="199.332" y2="185.065" gradientUnits="userSpaceOnUse"><stop stop-color="#F38844"/><stop offset="1" stop-color="#F38844" stop-opacity=".51"/></linearGradient><linearGradient id="paint21_linear" x1="228.545" y1="160.256" x2="228.545" y2="176.71" gradientUnits="userSpaceOnUse"><stop stop-color="#F38844"/><stop offset="1" stop-color="#F38844" stop-opacity=".51"/></linearGradient><linearGradient id="paint22_linear" x1="212.751" y1="148.878" x2="212.751" y2="171.635" gradientUnits="userSpaceOnUse"><stop stop-color="#F38844"/><stop offset="1" stop-color="#F38844" stop-opacity=".51"/></linearGradient><linearGradient id="paint23_linear" x1="237.623" y1="136.481" x2="237.623" y2="155.532" gradientUnits="userSpaceOnUse"><stop stop-color="#F38844"/><stop offset="1" stop-color="#F38844" stop-opacity=".51"/></linearGradient><linearGradient id="paint24_linear" x1="220.648" y1="130.197" x2="220.648" y2="152.954" gradientUnits="userSpaceOnUse"><stop stop-color="#F38844"/><stop offset="1" stop-color="#F38844" stop-opacity=".51"/></linearGradient><linearGradient id="paint25_linear" x1="241.42" y1="111.516" x2="241.42" y2="134.161" gradientUnits="userSpaceOnUse"><stop stop-color="#F38844"/><stop offset="1" stop-color="#F38844" stop-opacity=".51"/></linearGradient><linearGradient id="paint26_linear" x1="224.044" y1="111.346" x2="224.044" y2="132.405" gradientUnits="userSpaceOnUse"><stop stop-color="#F38844"/><stop offset="1" stop-color="#F38844" stop-opacity=".51"/></linearGradient><linearGradient id="paint27_linear" x1="239.783" y1="86.552" x2="239.783" y2="111.686" gradientUnits="userSpaceOnUse"><stop stop-color="#F38844"/><stop offset="1" stop-color="#F38844" stop-opacity=".51"/></linearGradient><linearGradient id="paint28_linear" x1="222.431" y1="93.684" x2="222.431" y2="111.176" gradientUnits="userSpaceOnUse"><stop stop-color="#F38844"/><stop offset="1" stop-color="#F38844" stop-opacity=".51"/></linearGradient><linearGradient id="paint29_linear" x1="233.265" y1="64.134" x2="233.265" y2="90.288" gradientUnits="userSpaceOnUse"><stop stop-color="#F38844"/><stop offset="1" stop-color="#F38844" stop-opacity=".51"/></linearGradient><linearGradient id="paint30_linear" x1="215.978" y1="77.381" x2="215.978" y2="90.739" gradientUnits="userSpaceOnUse"><stop stop-color="#F38844"/><stop offset="1" stop-color="#F38844" stop-opacity=".51"/></linearGradient><linearGradient id="paint31_linear" x1="221.412" y1="45.114" x2="221.412" y2="70.418" gradientUnits="userSpaceOnUse"><stop stop-color="#F38844"/><stop offset="1" stop-color="#F38844" stop-opacity=".51"/></linearGradient><linearGradient id="paint32_linear" x1="205.364" y1="62.266" x2="205.364" y2="72.478" gradientUnits="userSpaceOnUse"><stop stop-color="#F38844"/><stop offset="1" stop-color="#F38844" stop-opacity=".51"/></linearGradient></defs></svg>