<svg width="80" height="80" viewBox="0 0 80 80" fill="none" xmlns="http://www.w3.org/2000/svg"><circle cx="40" cy="40" r="37.5" stroke="#fff" stroke-width="3"/><path d="M54.004 45.181a51.286 51.286 0 003.957-6.07c.931-1.786 1.01-4.017.078-5.803l-4.656-9.284c-1.707-3.393-5.12-4.017-7.604-1.34-3.88 4.197-9.621 8.124-18.312 9.732-2.948.535-5.509 2.678-6.983 5.624-3.026 6.07-8.147 16.158-11.096 22.14-1.086 2.142.233 4.73 2.406 4.73h7.06c2.406 0 4.811-.267 7.062-.981 11.794-3.482 21.338-9.82 28.088-18.748zM31.037 26.166c8.147-2.678 12.57-7.588 14.975-11.694.854-1.429.854-3.304.078-4.821l-2.25-4.375c-1.552-3.035-5.432-3.035-6.906 0l-8.535 17.052c-1.01 1.963.698 4.552 2.638 3.838zm39.417 31.871l-4.423-8.838c-1.785-3.482-6.052-3.928-8.302-.893l-.078.09a54.398 54.398 0 01-11.329 11.248C44.15 61.25 45.16 65 47.642 65h19.32c3.104 0 5.044-3.839 3.492-6.963z" fill="#fff"/></svg>