<?xml version="1.0" encoding="UTF-8"?><svg id="a" xmlns="http://www.w3.org/2000/svg" viewBox="0 0 146.61 142.48"><defs><style>.b,.c{fill:#a6a5a5;}.c{font-family:Consular, Consular;font-size:59.36px;}.d{fill:#fdf3bf;}.e{letter-spacing:.03em;}</style></defs><g><path class="b" d="M16.55,2.41h7.05s3.39,.48,3.39,4.34v60.57s.52,4.34-2.87,4.83h-7.57v2.9H48.91v-3.14l-7.57,.24s-2.87-.97-2.87-5.31l-.26-60.57s.52-3.62,3.65-3.86h7.05V0H16.55V2.41Z"/><path class="d" d="M57.81,38.24h4.7v-10.38s2.87-8.45,9.92-8.45h16.7V85.79h-11.48v3.86h34.91l.07-3.62h-12.53V19.42h18.01s4.96,4.83,4.7,8.45v10.86h4.44V16.3H57.81v21.95Z"/></g><text class="c" transform="translate(.02 142.45) scale(1.02 1)"><tspan x="0" y="0">Del</tspan><tspan class="e" x="75.94" y="0">f</tspan><tspan x="99.68" y="0">os</tspan></text></svg>