<svg xmlns="http://www.w3.org/2000/svg" xmlns:xlink="http://www.w3.org/1999/xlink" viewBox="0 0 119.49 119.93"><defs><style>.cls-1{fill:url(#linear-gradient);}.cls-2{fill:url(#linear-gradient-2);}.cls-3{fill:none;}.cls-4{fill:url(#linear-gradient-3);}.cls-5{fill:url(#linear-gradient-4);}.cls-6{fill:url(#linear-gradient-5);}.cls-7{fill:url(#linear-gradient-6);}</style><linearGradient id="linear-gradient" x1="8.98" y1="114.36" x2="80.85" y2="38.01" gradientUnits="userSpaceOnUse"><stop offset="0" stop-color="#eb6792"/><stop offset="0.23" stop-color="#c96496"/><stop offset="0.71" stop-color="#745ea1"/><stop offset="0.92" stop-color="#4e5ba6"/></linearGradient><linearGradient id="linear-gradient-2" x1="-53.28" y1="-83.98" x2="37.02" y2="-179.91" gradientTransform="translate(-17.03 198.69) rotate(23.21)" gradientUnits="userSpaceOnUse"><stop offset="0" stop-color="#00a2de"/><stop offset="0.98" stop-color="#00b1eb"/></linearGradient><linearGradient id="linear-gradient-3" x1="70.54" y1="199.46" x2="70.54" y2="-13.69" xlink:href="#linear-gradient"/><linearGradient id="linear-gradient-4" x1="23.7" y1="291.82" x2="106.33" y2="204.04" gradientTransform="matrix(1, 0, 0, -1, 0, 313.55)" gradientUnits="userSpaceOnUse"><stop offset="0" stop-color="#00a2de"/><stop offset="0.65" stop-color="#00a8e4"/><stop offset="0.98" stop-color="#00adea"/></linearGradient><linearGradient id="linear-gradient-5" x1="-675.26" y1="291.82" x2="-592.63" y2="204.04" gradientTransform="translate(-578.94 313.55) rotate(180)" gradientUnits="userSpaceOnUse"><stop offset="0" stop-color="#eb6792"/><stop offset="0.12" stop-color="#e46693"/><stop offset="0.31" stop-color="#cf6596"/><stop offset="0.52" stop-color="#ae629a"/><stop offset="0.77" stop-color="#7f5fa0"/><stop offset="1" stop-color="#4e5ba6"/></linearGradient><linearGradient id="linear-gradient-6" x1="-674.74" y1="98.2" x2="-592.11" y2="10.42" gradientTransform="matrix(-1, 0, 0, 1, -578.94, 0)" xlink:href="#linear-gradient-2"/></defs><title>Recurso 1</title><g id="Capa_2" data-name="Capa 2"><g id="Capa_1-2" data-name="Capa 1"><path class="cls-1" d="M83.55,60.43a23.81,23.81,0,1,1-23.8-23.8A23.81,23.81,0,0,1,83.55,60.43Z"/><path class="cls-2" d="M72.29,30.94A31.83,31.83,0,1,0,89,72.74,31.84,31.84,0,0,0,72.29,30.94ZM52.66,76.7a18,18,0,1,1,23.6-9.43A18,18,0,0,1,52.66,76.7Z"/><path class="cls-3" d="M71.54,32.71A29.91,29.91,0,1,0,87.23,72,29.9,29.9,0,0,0,71.54,32.71ZM53.1,75.7a16.87,16.87,0,1,1,22.16-8.85A16.86,16.86,0,0,1,53.1,75.7Z"/><path class="cls-4" d="M83.38,5.36a59.6,59.6,0,0,0-61.8,9.11,75,75,0,0,1,84.9,82.82A59.61,59.61,0,0,0,83.38,5.36Z"/><path class="cls-5" d="M83.38,115.09A59.6,59.6,0,0,1,21.58,106a74.95,74.95,0,0,0,84.9-82.82,59.61,59.61,0,0,1-23.1,91.93Z"/><path class="cls-6" d="M36.64,115.09A59.61,59.61,0,0,0,98.44,106a74.95,74.95,0,0,1-84.9-82.82,59.61,59.61,0,0,0,23.1,91.93Z"/><path class="cls-7" d="M36.11,4.84A59.58,59.58,0,0,1,97.91,14,74.95,74.95,0,0,0,13,96.76,59.63,59.63,0,0,1,36.11,4.84Z"/></g></g></svg>