<svg xmlns="http://www.w3.org/2000/svg" xmlns:xlink="http://www.w3.org/1999/xlink" viewBox="0 0 438.38 99.46"><defs><style>.cls-1,.cls-5{fill:none;}.cls-1{stroke:#4e458c;stroke-miterlimit:10;}.cls-2{fill:#4e458c;}.cls-3{fill:url(#linear-gradient);}.cls-4{fill:url(#linear-gradient-2);}.cls-6{fill:url(#linear-gradient-3);}.cls-7{fill:url(#linear-gradient-4);}.cls-8{fill:url(#linear-gradient-5);}.cls-9{fill:url(#linear-gradient-6);}</style><linearGradient id="linear-gradient" x1="7.38" y1="94.02" x2="66.47" y2="31.25" gradientUnits="userSpaceOnUse"><stop offset="0" stop-color="#eb6792"/><stop offset="0.23" stop-color="#c96496"/><stop offset="0.71" stop-color="#745ea1"/><stop offset="0.92" stop-color="#4e5ba6"/></linearGradient><linearGradient id="linear-gradient-2" x1="-90.58" y1="-47.91" x2="-16.33" y2="-126.78" gradientTransform="translate(37.32 162.36) rotate(23.21)" gradientUnits="userSpaceOnUse"><stop offset="0" stop-color="#00a2de"/><stop offset="0.98" stop-color="#00b1eb"/></linearGradient><linearGradient id="linear-gradient-3" x1="57.99" y1="163.99" x2="57.99" y2="-11.25" xlink:href="#linear-gradient"/><linearGradient id="linear-gradient-4" x1="19.48" y1="523.94" x2="87.42" y2="451.77" gradientTransform="matrix(1, 0, 0, -1, 0, 541.8)" gradientUnits="userSpaceOnUse"><stop offset="0" stop-color="#00a2de"/><stop offset="0.65" stop-color="#00a8e4"/><stop offset="0.98" stop-color="#00adea"/></linearGradient><linearGradient id="linear-gradient-5" x1="-426.88" y1="523.94" x2="-358.94" y2="451.77" gradientTransform="translate(-347.69 541.8) rotate(180)" gradientUnits="userSpaceOnUse"><stop offset="0" stop-color="#eb6792"/><stop offset="0.12" stop-color="#e46693"/><stop offset="0.31" stop-color="#cf6596"/><stop offset="0.52" stop-color="#ae629a"/><stop offset="0.77" stop-color="#7f5fa0"/><stop offset="1" stop-color="#4e5ba6"/></linearGradient><linearGradient id="linear-gradient-6" x1="-426.44" y1="80.74" x2="-358.51" y2="8.57" gradientTransform="matrix(-1, 0, 0, 1, -347.69, 0)" xlink:href="#linear-gradient-2"/></defs><title>Recurso 3</title><g id="Capa_2" data-name="Capa 2"><g id="Capa_1-2" data-name="Capa 1"><path class="cls-1" d="M122.92,66.05V34.45h6.32v31.6Z"/><path class="cls-1" d="M152.49,66.05V40.77H141.43V34.45h28.34v6.32h-11V66.05Z"/><path class="cls-2" d="M188,59.73h6.32v6.32H188Z"/><path class="cls-2" d="M235.75,62.94l-3.11,3.11H207.41V34.45h18.91l9.43,9.49Zm-6.27-15.85-6.32-6.32h-9.43v19h15.75Z"/><path class="cls-2" d="M248.84,66.05V34.45h26.81v6.32H255.16v6.37h18.91v6.32H255.16v6.27h20.49v6.32Z"/><path class="cls-2" d="M295.05,34.45V59.73h20.5v6.32H288.73V34.45Z"/><path class="cls-2" d="M327.73,66.05V34.45h26.81v6.32H334.05v6.37H353v6.32H334.05V66.05Z"/><path class="cls-2" d="M369.83,66.05l-3.11-3.11V37.66l3.11-3.21H392l3.12,3.21V62.94L392,66.05Zm19-6.32v-19H373v19Z"/><path class="cls-2" d="M411.72,66.05l-3.12-3.11V56.62h6.32v3.11h15.75V53.46H411.72L408.6,51.2V37.66l3.12-3.21h22.11L437,37.66v6.28h-6.28V40.77H414.92v6.32h18.91L437,50.25V62.94l-3.12,3.11Z"/><path class="cls-2" d="M350.46,98.69a5.74,5.74,0,0,1-2.23-2.14,5.93,5.93,0,0,1-.81-3.08,5.81,5.81,0,0,1,.82-3.07,5.74,5.74,0,0,1,2.23-2.14,7.06,7.06,0,0,1,5.79-.28,5.4,5.4,0,0,1,2,1.45l-1.4,1.32a4.06,4.06,0,0,0-3.11-1.37,4.35,4.35,0,0,0-2.14.53,3.82,3.82,0,0,0-1.48,1.45,4.47,4.47,0,0,0,0,4.22A3.84,3.84,0,0,0,351.61,97a4.35,4.35,0,0,0,2.14.52,4,4,0,0,0,3.11-1.38l1.4,1.33a5.19,5.19,0,0,1-2,1.45,6.76,6.76,0,0,1-2.62.5A6.56,6.56,0,0,1,350.46,98.69Z"/><path class="cls-2" d="M371,96.6h-5.82L364,99.29h-2.23L367,87.65h2.12l5.26,11.64h-2.26Zm-.71-1.7-2.19-5.09-2.18,5.09Z"/><path class="cls-2" d="M389.88,99.29V91.58L386,98h-1l-3.83-6.28v7.61h-2.06V87.65H381l4.62,7.72,4.54-7.72h1.78l0,11.64Z"/><path class="cls-2" d="M405.82,88.15a3.81,3.81,0,0,1,1.72,1.43,4,4,0,0,1,.6,2.21,4,4,0,0,1-.6,2.21,3.9,3.9,0,0,1-1.72,1.44,6.51,6.51,0,0,1-2.64.5h-2.62v3.35h-2.17V87.65h4.79A6.51,6.51,0,0,1,405.82,88.15Zm-.59,5.35a2.05,2.05,0,0,0,.73-1.71,2.08,2.08,0,0,0-.73-1.71,3.32,3.32,0,0,0-2.15-.6h-2.52V94.1h2.52A3.32,3.32,0,0,0,405.23,93.5Z"/><path class="cls-2" d="M414.87,98.11a5.29,5.29,0,0,1-1.35-3.89V87.65h2.17v6.49c0,2.28,1,3.42,3,3.42s2.94-1.14,2.94-3.42V87.65h2.12v6.57a5.32,5.32,0,0,1-1.33,3.89,5.9,5.9,0,0,1-7.51,0Z"/><path class="cls-2" d="M431.07,99.08a5.41,5.41,0,0,1-2-1l.74-1.68a5.86,5.86,0,0,0,1.76.93,6.53,6.53,0,0,0,2.08.35,3.59,3.59,0,0,0,1.94-.41,1.26,1.26,0,0,0,.64-1.1,1,1,0,0,0-.36-.82,2.38,2.38,0,0,0-.9-.51c-.37-.12-.86-.26-1.5-.42a17.31,17.31,0,0,1-2.15-.63,3.49,3.49,0,0,1-1.41-1,2.62,2.62,0,0,1-.59-1.82,3.1,3.1,0,0,1,.52-1.75A3.5,3.5,0,0,1,431.44,88a6.37,6.37,0,0,1,2.58-.46,8.75,8.75,0,0,1,2.1.26,5.67,5.67,0,0,1,1.78.77l-.68,1.68a6.75,6.75,0,0,0-1.6-.68,5.82,5.82,0,0,0-1.61-.24,3.37,3.37,0,0,0-1.91.43,1.36,1.36,0,0,0-.62,1.15,1,1,0,0,0,.36.82,2.72,2.72,0,0,0,.91.5c.36.12.86.25,1.49.41a16.41,16.41,0,0,1,2.13.62,3.72,3.72,0,0,1,1.42,1,2.61,2.61,0,0,1,.59,1.79,3,3,0,0,1-.53,1.74A3.43,3.43,0,0,1,436.27,99a6.5,6.5,0,0,1-2.6.47A9.09,9.09,0,0,1,431.07,99.08Z"/><path class="cls-3" d="M68.69,49.68A19.57,19.57,0,1,1,49.12,30.12,19.57,19.57,0,0,1,68.69,49.68Z"/><path class="cls-4" d="M59.44,25.44A26.17,26.17,0,1,0,73.17,59.8,26.17,26.17,0,0,0,59.44,25.44ZM43.3,63.06a14.77,14.77,0,1,1,19.4-7.75A14.75,14.75,0,0,1,43.3,63.06Z"/><path class="cls-5" d="M58.81,26.89A24.59,24.59,0,1,0,71.72,59.18,24.58,24.58,0,0,0,58.81,26.89ZM43.65,62.24A13.87,13.87,0,1,1,61.87,55,13.88,13.88,0,0,1,43.65,62.24Z"/><path class="cls-6" d="M68.55,4.41a49,49,0,0,0-50.8,7.49A61.62,61.62,0,0,1,87.55,80a49.6,49.6,0,0,0,6.72-11.25A49,49,0,0,0,68.55,4.41Z"/><path class="cls-7" d="M68.55,94.62a49,49,0,0,1-50.8-7.49,61.35,61.35,0,0,0,32.88-4.39A61.63,61.63,0,0,0,87.55,19a49.6,49.6,0,0,1,6.72,11.25A49,49,0,0,1,68.55,94.62Z"/><path class="cls-8" d="M30.13,94.62a49,49,0,0,0,50.8-7.49,61.34,61.34,0,0,1-32.88-4.39A61.61,61.61,0,0,1,11.13,19,49.6,49.6,0,0,0,4.41,30.29,49,49,0,0,0,30.13,94.62Z"/><path class="cls-9" d="M29.69,4A49,49,0,0,1,80.5,11.47,61.61,61.61,0,0,0,10.7,79.55,49,49,0,0,1,29.69,4Z"/></g></g></svg>