<svg xmlns="http://www.w3.org/2000/svg" xmlns:xlink="http://www.w3.org/1999/xlink" viewBox="0 0 315.96 250.43"><defs><style>.cls-1,.cls-5{fill:none;}.cls-1{stroke:#4e458c;stroke-miterlimit:10;}.cls-2{fill:#4e458c;}.cls-3{fill:url(#linear-gradient);}.cls-4{fill:url(#linear-gradient-2);}.cls-6{fill:url(#linear-gradient-3);}.cls-7{fill:url(#linear-gradient-4);}.cls-8{fill:url(#linear-gradient-5);}.cls-9{fill:url(#linear-gradient-6);}</style><linearGradient id="linear-gradient" x1="84.2" y1="152.2" x2="179.86" y2="50.59" gradientUnits="userSpaceOnUse"><stop offset="0" stop-color="#eb6792"/><stop offset="0.23" stop-color="#c96496"/><stop offset="0.71" stop-color="#745ea1"/><stop offset="0.92" stop-color="#4e5ba6"/></linearGradient><linearGradient id="linear-gradient-2" x1="92.65" y1="162.32" x2="212.84" y2="34.64" gradientTransform="translate(7.29 -51.91) rotate(23.21)" gradientUnits="userSpaceOnUse"><stop offset="0" stop-color="#00a2de"/><stop offset="0.98" stop-color="#00b1eb"/></linearGradient><linearGradient id="linear-gradient-3" x1="166.13" y1="265.48" x2="166.13" y2="-18.22" xlink:href="#linear-gradient"/><linearGradient id="linear-gradient-4" x1="103.79" y1="152.25" x2="213.77" y2="35.42" gradientTransform="matrix(1, 0, 0, -1, 0, 181.16)" gradientUnits="userSpaceOnUse"><stop offset="0" stop-color="#00a2de"/><stop offset="0.65" stop-color="#00a8e4"/><stop offset="0.98" stop-color="#00adea"/></linearGradient><linearGradient id="linear-gradient-5" x1="465.14" y1="152.25" x2="575.12" y2="35.42" gradientTransform="translate(665.58 181.16) rotate(180)" gradientUnits="userSpaceOnUse"><stop offset="0" stop-color="#eb6792"/><stop offset="0.12" stop-color="#e46693"/><stop offset="0.31" stop-color="#cf6596"/><stop offset="0.52" stop-color="#ae629a"/><stop offset="0.77" stop-color="#7f5fa0"/><stop offset="1" stop-color="#4e5ba6"/></linearGradient><linearGradient id="linear-gradient-6" x1="465.84" y1="130.7" x2="575.82" y2="13.87" gradientTransform="matrix(-1, 0, 0, 1, 665.58, 0)" xlink:href="#linear-gradient-2"/></defs><title>Recurso 4</title><g id="Capa_2" data-name="Capa 2"><g id="Capa_1-2" data-name="Capa 1"><path class="cls-1" d="M.5,217v-31.6H6.82V217Z"/><path class="cls-1" d="M30.06,217V191.74H19v-6.32H47.35v6.32h-11V217Z"/><path class="cls-2" d="M65.58,210.7H71.9V217H65.58Z"/><path class="cls-2" d="M113.33,213.9,110.21,217H85v-31.6h18.9l9.44,9.48Zm-6.27-15.84-6.32-6.32H91.3v19h15.76Z"/><path class="cls-2" d="M126.41,217v-31.6h26.81v6.32H132.73v6.37h18.91v6.31H132.73v6.28h20.49V217Z"/><path class="cls-2" d="M172.63,185.42V210.7h20.49V217H166.31v-31.6Z"/><path class="cls-2" d="M205.3,217v-31.6h26.81v6.32H211.62v6.37h18.92v6.31H211.62V217Z"/><path class="cls-2" d="M247.41,217l-3.12-3.12V188.63l3.12-3.21h22.12l3.11,3.21V213.9L269.53,217Zm19-6.32v-19H250.61v19Z"/><path class="cls-2" d="M289.29,217l-3.11-3.12v-6.32h6.32v3.12h15.75v-6.28h-19l-3.11-2.25V188.63l3.11-3.21h22.12l3.11,3.21v6.27h-6.27v-3.16H292.5v6.32h18.91l3.11,3.16V213.9L311.41,217Z"/><path class="cls-2" d="M228,249.65a5.6,5.6,0,0,1-2.23-2.14,6,6,0,0,1-.8-3.07,5.87,5.87,0,0,1,.81-3.07,5.63,5.63,0,0,1,2.24-2.14,6.49,6.49,0,0,1,3.18-.78,6.64,6.64,0,0,1,2.61.5,5.49,5.49,0,0,1,2,1.45l-1.4,1.31a4.06,4.06,0,0,0-3.11-1.36,4.41,4.41,0,0,0-2.15.52,3.86,3.86,0,0,0-1.47,1.45,4.49,4.49,0,0,0,0,4.23,3.82,3.82,0,0,0,1.47,1.46,4.53,4.53,0,0,0,2.15.52,4,4,0,0,0,3.11-1.38l1.4,1.33a5.44,5.44,0,0,1-2,1.45,6.72,6.72,0,0,1-2.62.5A6.51,6.51,0,0,1,228,249.65Z"/><path class="cls-2" d="M248.54,247.56h-5.82l-1.15,2.7h-2.22l5.23-11.64h2.13L252,250.26H249.7Zm-.72-1.69-2.19-5.09-2.18,5.09Z"/><path class="cls-2" d="M267.46,250.26l0-7.72-3.82,6.39h-1l-3.83-6.29v7.62h-2.06V238.62h1.78l4.62,7.72,4.54-7.72h1.78v11.64Z"/><path class="cls-2" d="M283.4,239.12a3.87,3.87,0,0,1,1.72,1.43,4.42,4.42,0,0,1,0,4.41,3.82,3.82,0,0,1-1.72,1.44,6.35,6.35,0,0,1-2.64.5h-2.63v3.36H276V238.62h4.79A6.51,6.51,0,0,1,283.4,239.12Zm-.59,5.35a2.37,2.37,0,0,0,0-3.42,3.34,3.34,0,0,0-2.15-.6h-2.53v4.62h2.53A3.34,3.34,0,0,0,282.81,244.47Z"/><path class="cls-2" d="M292.45,249.07a5.26,5.26,0,0,1-1.35-3.88v-6.57h2.16v6.48q0,3.43,3,3.43t2.94-3.43v-6.48h2.13v6.57a5.26,5.26,0,0,1-1.34,3.88,5.85,5.85,0,0,1-7.5,0Z"/><path class="cls-2" d="M308.65,250a5.38,5.38,0,0,1-2-1l.75-1.68a5.69,5.69,0,0,0,1.75.92,6.38,6.38,0,0,0,2.09.36,3.58,3.58,0,0,0,1.94-.42,1.26,1.26,0,0,0,.64-1.1,1.08,1.08,0,0,0-.36-.82,2.45,2.45,0,0,0-.9-.5c-.37-.13-.87-.26-1.5-.42a17.53,17.53,0,0,1-2.16-.63,3.63,3.63,0,0,1-1.41-1,2.69,2.69,0,0,1-.59-1.82,3,3,0,0,1,.53-1.75,3.52,3.52,0,0,1,1.57-1.26,6.44,6.44,0,0,1,2.59-.47,8.29,8.29,0,0,1,2.1.27,6,6,0,0,1,1.77.76l-.68,1.68a6.93,6.93,0,0,0-1.59-.68,6.27,6.27,0,0,0-1.62-.23,3.34,3.34,0,0,0-1.9.43,1.35,1.35,0,0,0-.62,1.15,1,1,0,0,0,.35.81,2.56,2.56,0,0,0,.91.5c.37.12.86.26,1.5.42a16.68,16.68,0,0,1,2.12.62,3.76,3.76,0,0,1,1.43,1A2.64,2.64,0,0,1,316,247a3.05,3.05,0,0,1-.53,1.74,3.58,3.58,0,0,1-1.59,1.25,6.44,6.44,0,0,1-2.59.47A8.71,8.71,0,0,1,308.65,250Z"/><path class="cls-3" d="M183.45,80.43a31.68,31.68,0,1,1-31.68-31.68A31.68,31.68,0,0,1,183.45,80.43Z"/><path class="cls-4" d="M168.47,41.19A42.36,42.36,0,1,0,190.7,96.81,42.35,42.35,0,0,0,168.47,41.19Zm-26.13,60.9a23.91,23.91,0,1,1,31.4-12.55A23.92,23.92,0,0,1,142.34,102.09Z"/><path class="cls-5" d="M167.46,43.54A39.8,39.8,0,1,0,188.35,95.8,39.81,39.81,0,0,0,167.46,43.54Zm-24.54,57.22A22.46,22.46,0,1,1,172.41,89,22.47,22.47,0,0,1,142.92,100.76Z"/><path class="cls-6" d="M183.22,7.14A79.3,79.3,0,0,0,101,19.26,99.77,99.77,0,0,1,214,129.49,79.35,79.35,0,0,0,183.22,7.14Z"/><path class="cls-7" d="M183.22,153.17A79.25,79.25,0,0,1,101,141.05a99.22,99.22,0,0,0,53.23-7.11A99.75,99.75,0,0,0,214,30.83a79.33,79.33,0,0,1-30.75,122.34Z"/><path class="cls-8" d="M121,153.17a79.25,79.25,0,0,0,82.24-12.12A99.22,99.22,0,0,1,150,133.94,99.72,99.72,0,0,1,90.27,30.83,79.33,79.33,0,0,0,121,153.17Z"/><path class="cls-9" d="M120.31,6.44a79.35,79.35,0,0,1,82.26,12.12,99.77,99.77,0,0,0-113,110.23A79.36,79.36,0,0,1,120.31,6.44Z"/></g></g></svg>