<?xml version="1.0" standalone="no"?>
<!DOCTYPE svg PUBLIC "-//W3C//DTD SVG 20010904//EN"
 "http://www.w3.org/TR/2001/REC-SVG-20010904/DTD/svg10.dtd">
<svg version="1.0" xmlns="http://www.w3.org/2000/svg"
 width="900.000000pt" height="471.000000pt" viewBox="0 0 900.000000 471.000000"
 preserveAspectRatio="xMidYMid meet">

<g transform="translate(0.000000,471.000000) scale(0.100000,-0.100000)"
fill="#000000" stroke="none">
<path d="M0 2370 l0 -2245 2341 0 2341 1 96 99 c217 226 318 331 532 555 214
223 349 364 610 635 101 105 317 331 675 705 55 58 152 159 215 225 63 66 218
228 345 360 126 132 286 299 355 370 262 272 594 619 810 845 249 261 381 399
548 571 62 63 112 117 112 120 0 2 -2020 4 -4490 4 l-4490 0 0 -2245z m1665
1119 c233 -17 492 -70 549 -112 19 -14 19 -16 -11 -93 -16 -44 -54 -141 -83
-217 -48 -125 -55 -138 -74 -132 -193 57 -377 85 -563 85 -197 0 -295 -29
-337 -101 -33 -56 -13 -144 42 -191 68 -57 237 -122 517 -197 259 -70 397
-136 504 -241 68 -66 105 -120 136 -195 l23 -57 85 219 c48 120 176 448 286
728 l200 510 333 0 333 0 350 -875 350 -875 3 878 2 877 459 0 c496 0 553 -5
690 -56 198 -75 372 -237 465 -435 53 -112 68 -178 73 -329 4 -114 2 -149 -16
-223 -74 -310 -304 -545 -616 -628 -64 -17 -119 -22 -282 -26 l-203 -6 0 -278
0 -279 -520 2 -521 3 -51 155 c-28 85 -54 159 -58 163 -4 5 -41 -2 -82 -16
-131 -44 -233 -60 -373 -60 -139 1 -224 15 -358 59 -43 14 -80 24 -83 21 -2
-2 -28 -76 -58 -163 l-53 -159 -331 -3 c-183 -1 -332 0 -332 2 0 4 51 138 76
200 6 16 -1 14 -37 -11 -104 -71 -251 -130 -407 -163 -256 -54 -697 -28 -949
57 -84 28 -168 67 -178 82 -6 10 131 470 144 484 4 4 47 -11 95 -33 285 -134
733 -145 866 -20 54 50 36 134 -41 189 -52 38 -139 68 -394 136 -296 79 -420
142 -526 270 -119 144 -175 360 -138 537 6 29 29 91 51 138 79 166 244 294
450 350 147 40 331 49 593 29z"/>
<path d="M4880 2650 l0 -282 168 4 c190 5 230 16 299 85 60 60 78 105 78 198
0 69 -4 86 -27 126 -31 53 -71 90 -132 122 -36 19 -60 22 -213 25 l-173 4 0
-282z"/>
<path d="M3141 2443 l-135 -386 23 -18 c85 -69 342 -76 478 -14 l53 24 -44
123 c-24 68 -85 243 -137 391 -51 147 -96 267 -99 267 -3 0 -65 -174 -139
-387z"/>
</g>
</svg>
