<svg xmlns="http://www.w3.org/2000/svg" xmlns:xlink="http://www.w3.org/1999/xlink" viewBox="0 0 416.3 174.16"><defs><style>.cls-1{fill:none;}.cls-2{clip-path:url(#clip-path);}.cls-3{fill:#0072bb;}.cls-4{fill:#71777c;}.cls-5{clip-path:url(#clip-path-3);}</style><clipPath id="clip-path" transform="translate(-7.39 -168.51)"><rect class="cls-1" y="102.92" width="431.08" height="431.08"/></clipPath><clipPath id="clip-path-3" transform="translate(-7.39 -168.51)"><rect class="cls-1" width="431.08" height="431.08"/></clipPath></defs><title>Recurso 1</title><g id="Capa_2" data-name="Capa 2"><g id="Capa_1-2" data-name="Capa 1"><g class="cls-2"><g class="cls-2"><path class="cls-3" d="M67.07,341.77c21.09-12.24,36.68-29.21,47.37-51.38,2.84,2.59,5.57,4.78,8,7.31,9.07,9.63,13.81,21.2,14.84,34.33a2.58,2.58,0,0,0,1.77,2.48,5.84,5.84,0,0,1,2.52,2.74c1.16,2.59-.21,4.5-3.06,4.5q-31.45,0-62.9,0h-8.5" transform="translate(-7.39 -168.51)"/><path class="cls-4" d="M356.35,310.24c2.83-1.39,5.33-3.12,8.11-3.91,8.52-2.42,16,3.14,16.53,12,.38,6.2-.6,12.09-4.28,17.29-4.36,6.16-13.24,8.85-20.12,5.78-2-.88-3.51-2.82-5.19-4.34a13.69,13.69,0,0,1-1.47-2.3c-.54,1.95-1,3.27-1.27,4.62-.35,1.56-1.06,2.39-2.82,2.31-2.72-.12-5.44,0-8.32,0,1-4.46,1.92-8.39,2.81-12.33,2.73-12.1,5.5-24.2,8.16-36.31.39-1.77,1.06-2.48,2.9-2.36a66.36,66.36,0,0,0,6.91,0c1.79-.08,2.15.77,1.82,2.26-1.06,4.63-2.14,9.25-3.18,13.88-.26,1.16-.41,2.33-.59,3.43m12.55,12.14c.06-2.83-.5-5.42-3.13-7-2.45-1.45-4.92-.9-7.21.43-3.76,2.18-6.19,7.86-5.31,12.15,1.05,5.08,5,7.19,9.63,4.95,4.36-2.09,5.92-5.94,6-10.55" transform="translate(-7.39 -168.51)"/><path class="cls-3" d="M35.48,306.68C50.37,281.08,84,273.36,108.31,287,86.25,302,62.16,308.24,35.48,306.68" transform="translate(-7.39 -168.51)"/><path class="cls-3" d="M109.16,295.09c-3.91,5.64-7.55,11.5-11.79,16.89A106.17,106.17,0,0,1,62,341a7.06,7.06,0,0,1-3.05.77c-15.07,0-30.13,0-45.2,0-1.46,0-3.14-.14-3.13-1.84,0-.89,1.27-2.12,2.26-2.62,3.89-2,7.84-3.88,11.87-5.55a18.18,18.18,0,0,1,6-1.35A111,111,0,0,0,92.3,308.62c5.73-4.2,10.94-9.12,16.38-13.71l.48.18" transform="translate(-7.39 -168.51)"/><path class="cls-4" d="M276.41,312.13c1-.83,1.93-1.65,2.88-2.48a15.9,15.9,0,0,1,12.88-3.71,9.89,9.89,0,0,1,8.48,9.52,42.39,42.39,0,0,1-.48,8.93c-.82,5.06-2.06,10.05-3,15.1-.29,1.59-.92,2.25-2.56,2.19-2.53-.09-5.07-.07-7.6,0-1.75.05-2.31-.51-1.91-2.33,1.2-5.38,2.27-10.8,3.34-16.21.5-2.51,1-5.1-1.57-6.89-1.88-1.29-6.3-.72-8.45,1.08-2.63,2.18-3.71,5.18-4.37,8.4-.93,4.58-2,9.14-2.85,13.72-.33,1.66-1.1,2.33-2.82,2.25-2.45-.12-4.91-.05-7.37,0-1.43,0-2.06-.31-1.7-2,2.16-10.35,4.2-20.72,6.26-31.09a1.9,1.9,0,0,1,2.18-1.81c2.38.07,4.76,0,7.15,0,1.37,0,2,.37,1.58,1.91a26.93,26.93,0,0,0-.55,3.13l.47.36" transform="translate(-7.39 -168.51)"/><path class="cls-4" d="M408.84,341.62V337.9c-2.72,1.39-5.37,3.42-8.33,4.05a20.51,20.51,0,0,1-9.47-.36c-6.63-1.85-8.37-11.32-2.92-16.41a18.44,18.44,0,0,1,8.36-4.38c4-.88,8.35-.72,12.54-.75,2.39,0,3.17-.76,2.3-3a5.49,5.49,0,0,0-5.65-3.58,86.55,86.55,0,0,0-9.94,1.44,16.6,16.6,0,0,0-2.24.78c.43-2.71.72-5,1.23-7.29.1-.48.95-1,1.54-1.14,6.16-1.65,12.38-2.21,18.6-.42,4.83,1.39,7.82,5.21,7.61,10.25A78.73,78.73,0,0,1,421,327.77c-.75,4.06-1.67,8.09-2.63,12.11-.16.65-.87,1.63-1.37,1.66-2.65.17-5.32.08-8.16.08M410,326c-4.17-.68-8.06-.55-11.66,1.61a3.74,3.74,0,0,0-2,4.47,4.1,4.1,0,0,0,4,2.9c5,.38,9.29-3.48,9.65-9" transform="translate(-7.39 -168.51)"/><path class="cls-4" d="M241.36,337.07a9,9,0,0,0-1.19.86c-4.08,4.63-9.36,5.3-14.95,4.19-7-1.4-10-8.61-6.39-14.83,2.69-4.59,7.2-6.37,12.11-7a78.73,78.73,0,0,1,10.76-.25c2.07,0,2.67-.52,2.21-2.55a5.67,5.67,0,0,0-6-4,94.5,94.5,0,0,0-10.1,1.67,14,14,0,0,0-1.74.58c.28-2.49.48-4.75.84-7A1.87,1.87,0,0,1,228,307.5c6.83-1.9,13.76-2.88,20.51-.06,5.33,2.22,7.44,6.92,6.29,12.91q-1.91,9.81-4.06,19.56a2.6,2.6,0,0,1-1.74,1.65,37.31,37.31,0,0,1-6.43,0c-.45,0-1-.95-1.19-1.56a13.84,13.84,0,0,1,0-2.94m-8-2.12a9.59,9.59,0,0,0,9.1-7.36c.23-1.1,0-1.75-1.25-1.87a17.19,17.19,0,0,0-9.83,1.45c-1.75.9-3.15,2.3-2.71,4.56.38,2,2.29,3.21,4.69,3.22" transform="translate(-7.39 -168.51)"/><path class="cls-3" d="M106,292.16c-21.06,22.42-47.06,34-78.13,35.49a44.22,44.22,0,0,1,1.08-5.88c1.11-3.5,2.48-6.91,3.72-10.36.55-1.51,1.53-1.93,3.16-1.94,7.2,0,14.44.27,21.58-.4a110.11,110.11,0,0,0,46.05-15.36l2.54-1.55" transform="translate(-7.39 -168.51)"/><path class="cls-4" d="M163.26,341.66c2.73-12.94,5.37-25.43,8.1-38.35h-11.9c.59-2.84,1-5.31,1.69-7.7a2.38,2.38,0,0,1,1.84-1.19c10.91-.07,21.82,0,32.74-.06,1.32,0,1.88.47,1.51,1.8a2,2,0,0,0-.06.23c-1.2,6.86-1.2,6.86-8.19,6.87-5.05,0-5.19,0-6.29,4.93q-3.42,15.38-6.54,30.82c-.42,2-1.2,2.83-3.34,2.7-3-.19-6.11,0-9.56,0" transform="translate(-7.39 -168.51)"/><path class="cls-4" d="M305.65,333.71c4,.43,7.57.92,11.21,1.19a6.78,6.78,0,0,0,3.56-.69c.95-.51,2.1-1.61,2.16-2.52a3.85,3.85,0,0,0-1.74-2.83,31.25,31.25,0,0,0-5.09-2.09c-3.55-1.41-6.61-3.22-7.42-7.44a8.83,8.83,0,0,1,3.23-9.23c5.36-4.24,11.68-4.7,18.16-4a48.81,48.81,0,0,1,6.07,1.26c1.07.25,1.52.83,1.06,2-.68,1.78-1.18,3.63-1.81,5.65a36.79,36.79,0,0,0-5.84-1.29,34.27,34.27,0,0,0-7.71.34,3.54,3.54,0,0,0-2.14,2.54c-.09.77,1,2.05,1.88,2.5,2.31,1.19,4.84,1.93,7.19,3.06,7.62,3.65,8.27,12.71,1,17.21a19.91,19.91,0,0,1-9.05,2.9c-4.78.26-9.63-.45-14.44-.84-1.79-.15-2.57-1-1.79-3,.68-1.67,1.09-3.45,1.5-4.77" transform="translate(-7.39 -168.51)"/><path class="cls-4" d="M204,306.73c-.37,2.45-.68,4.54-1,6.63l.46.23c.62-.87,1.23-1.75,1.87-2.62,2.82-3.83,6.52-5.7,11.34-5.06,1.65.22,2.77.64,2,2.8-.85,2.44-1.35,5-2,7.52a43.3,43.3,0,0,0-4.38-.55c-5.65-.12-9,2.5-10.3,8.08-1.23,5.29-2.42,10.6-3.48,15.94a2.06,2.06,0,0,1-2.47,2c-2.38-.07-4.77-.08-7.14,0-1.81.06-2.45-.4-2-2.4,2-9.35,4-18.74,5.85-28.12.88-4.41.81-4.42,5.44-4.42H204" transform="translate(-7.39 -168.51)"/></g></g><g class="cls-5"><g class="cls-5"><path class="cls-3" d="M54.21,262.57,7.39,215.51l46.8-47,46.92,47.05-46.9,47M28.94,200.81c4.55,12.15,9,24,13.42,35.78H43l13.41-35.78Zm37.12,28.73.62,0c2.82-7.52,5.64-15,8.5-22.69a6.29,6.29,0,0,0-1.3-.36q-7.35,0-14.7,0c-1.68,0-1.54.88-1.08,2.07,1.91,5,3.77,10.07,5.66,15.1.75,2,1.54,4,2.3,5.94m16.11-5h.58c1.69-4.53,3.37-9.07,5.12-13.78H77l5.18,13.78" transform="translate(-7.39 -168.51)"/><path class="cls-4" d="M330.73,210c-.21,1.71-.38,3.12-.63,5.23,1.08-.89,1.71-1.35,2.27-1.88a14.22,14.22,0,0,1,12.53-4,9.2,9.2,0,0,1,7.8,9.51,81.78,81.78,0,0,1-1.32,10.78c-.55,3.45-1.27,6.87-2,10.28-.15.65-.91,1.62-1.43,1.65-3.19.15-6.4.07-9.89.07.91-4.49,1.77-8.7,2.62-12.92.37-1.85.8-3.69,1.06-5.55.52-3.76-2-6-5.79-5.22-4.1.88-6.1,3.81-7,7.53-1.15,4.61-2.13,9.27-3,13.93-.35,1.84-1.15,2.39-2.95,2.28-2.56-.15-5.15,0-8.09,0,.46-2.24.86-4.19,1.25-6.14,1.59-8,3.16-16,4.79-24,.12-.56.74-1.41,1.16-1.43,2.84-.13,5.69-.07,8.69-.07" transform="translate(-7.39 -168.51)"/><path class="cls-4" d="M228.3,241.64c1.12-5.51,2.16-10.63,3.19-15.76a22,22,0,0,0,.52-3.3c.12-3.38-2.22-5.32-5.57-4.71-4,.75-6.77,4.07-7.72,9.17-.79,4.19-1.77,8.34-2.58,12.52-.3,1.59-1,2.21-2.67,2.12-2.7-.14-5.41,0-8.37,0,.5-2.51.92-4.67,1.36-6.84,1.53-7.67,3.08-15.34,4.58-23,.26-1.29.78-1.95,2.22-1.9,2.5.1,5,0,7.8,0-.22,1.76-.4,3.22-.66,5.28,1.1-.92,1.8-1.44,2.43-2A14,14,0,0,1,235,209.33c4.93.74,7.83,4.37,8,10a27.93,27.93,0,0,1-.44,5.85c-.92,4.94-2,9.85-3,14.78-.25,1.24-.77,1.76-2.1,1.72-2.93-.09-5.86,0-9.16,0" transform="translate(-7.39 -168.51)"/><path class="cls-4" d="M188.86,237.3c-3.27,4.1-7.36,5.37-12.09,5.18-4.37-.17-8.12-2.46-8.88-6-.94-4.5-.34-8.29,4-11.26,4.77-3.27,10.21-3.5,15.71-3.34a2.72,2.72,0,0,0,.63,0c1.07-.22,2.81-.19,3.05-.77a3,3,0,0,0-1.67-3.86,9.12,9.12,0,0,0-4.37-1.17c-3.23.23-6.43.9-10,1.44.25-1.81.51-3.89.88-6a1.61,1.61,0,0,1,1-.93c5.45-1.62,11-2.24,16.54-.72,6.28,1.73,8.88,6.32,7.64,12.73-1.14,5.89-2.42,11.76-3.73,17.62a2.42,2.42,0,0,1-1.48,1.32,7.58,7.58,0,0,1-2.29.06c-4.27,0-4.27,0-4.95-4.34m-7-1.71a8.81,8.81,0,0,0,8.19-6.67c.24-1.09-.06-1.62-1.13-1.74a15.43,15.43,0,0,0-9,1.37c-1.62.81-2.69,2.11-2.35,4s2.12,3,4.27,3" transform="translate(-7.39 -168.51)"/><path class="cls-4" d="M367.91,229c0,2.73,1,4.5,3.15,5.53,3.56,1.67,7.23,1.3,10.9.48,1.41-.31,2.8-.72,4.47-1.16-.35,2.19-.59,4.18-1,6.12a2,2,0,0,1-1.35,1.13c-5.4,1.23-10.78,2.24-16.32.46A14,14,0,0,1,358,225.89c1.13-7.94,5-13.66,12.9-15.9,5.08-1.44,10.25-1.42,15,1.37a11.24,11.24,0,0,1,5.44,8.57,41.86,41.86,0,0,1-.15,6.89c-.05,1.53-.89,2-2.34,2-6-.05-12.05,0-18.07,0-.89,0-1.78.11-2.88.18m.5-6c4.86,0,9.16,0,13.45-.05.33,0,.9-.85.91-1.3a5.4,5.4,0,0,0-5.53-5.59,8.17,8.17,0,0,0-7.35,3.63,24.25,24.25,0,0,0-1.48,3.31" transform="translate(-7.39 -168.51)"/><path class="cls-4" d="M306.81,233.75c-.28,2-.43,3.7-.83,5.38-.18.7-.8,1.7-1.39,1.84-5.17,1.2-10.35,2.36-15.7.74-7.45-2.27-11.54-8.07-10.56-15.71,1-7.86,4.94-13.62,12.82-16a20.11,20.11,0,0,1,11.8-.1c6.81,2.07,10.14,8.1,8.89,15.58-.56,3.3-.56,3.3-4,3.31-5.74,0-11.49,0-17.23,0-2.55,0-3,.75-1.86,3.07a6.19,6.19,0,0,0,6,3.56,102.64,102.64,0,0,0,10.73-1.3,11.1,11.1,0,0,0,1.29-.35M289.36,223h10.4c3.55,0,4.43-1.47,2.43-4.5a6.33,6.33,0,0,0-3.3-2.27c-4.39-1.28-9.59,2.33-9.53,6.77" transform="translate(-7.39 -168.51)"/><path class="cls-4" d="M150.22,199a4.13,4.13,0,0,1,.06.76c-.55,2.23-.44,5.2-1.85,6.46s-4.23.5-6.45.53c-4.19,0-4.08,0-4.92,4.26-1.2,6.09-2.58,12.15-3.88,18.23-.71,3.34-1.45,6.68-2.09,10-.32,1.7-1,2.52-2.91,2.39-2.77-.19-5.57-.05-8.73-.05.64-3.21,1.19-6.19,1.83-9.16q2.52-11.78,5.12-23.54c.32-1.48,0-2.23-1.72-2.18-2.78.09-5.56,0-8.68,0,.54-2.48,1-4.65,1.52-6.79a1.58,1.58,0,0,1,1.15-.94c10.49-.05,21,0,31.55,0" transform="translate(-7.39 -168.51)"/><path class="cls-4" d="M246.83,234.4c3.46.42,6.62.89,9.79,1.14a6.46,6.46,0,0,0,3.46-.6,4,4,0,0,0,2.09-2.46c.1-.77-.87-2-1.69-2.51a40.42,40.42,0,0,0-5-2.08c-3.25-1.33-5.87-3.15-6.27-7.09-.45-4.42,1.44-7.44,5.29-9.31,6.84-3.32,13.78-2.75,21-.51-.74,2.27-1.43,4.35-2.1,6.42a54.68,54.68,0,0,0-6.14-1.16,21.86,21.86,0,0,0-6,.34,3.53,3.53,0,0,0-2.06,2.26c-.16.59.74,1.83,1.46,2.21,2.23,1.15,4.61,2,6.9,3,6.61,3,7.34,10.65,1.46,15.08a15.52,15.52,0,0,1-9.78,3.24c-4.24-.08-8.47-.74-12.7-1.13-1.31-.12-1.69-.67-1.23-2,.61-1.68,1.07-3.42,1.51-4.9" transform="translate(-7.39 -168.51)"/><path class="cls-4" d="M409.17,215.83c3.59-5,7.81-8.08,14.52-6-.72,2.92-1.43,5.8-2.2,8.89-.75-.2-1.33-.35-1.91-.52-4.47-1.27-8.54.2-10.29,4.5-1.46,3.58-2.11,7.51-3,11.29-.52,2.11-.81,4.26-1.38,6.35a2.09,2.09,0,0,1-1.5,1.22c-2.52.13-5,0-7.56.07-1.45,0-1.62-.64-1.36-1.85q1.68-7.89,3.28-15.8c.85-4.24,1.6-8.51,2.52-12.74A2.06,2.06,0,0,1,401.7,210c2.24-.15,4.48-.05,6.72-.07,1.19,0,1.65.38,1.36,1.65s-.42,2.84-.61,4.26" transform="translate(-7.39 -168.51)"/><path class="cls-4" d="M140.36,241.6c1-4.69,1.95-9,2.82-13.25,1.07-5.26,2.13-10.52,3.06-15.81.33-1.83.86-2.88,3-2.68s4.57,0,7.14,0l-1,5.78.5.28c.44-.61.89-1.21,1.32-1.83,2.84-4.11,7-5.82,11.42-4.59.49.13,1.21,1.06,1.12,1.47-.57,2.57-1.34,5.1-2,7.47-2.06-.24-3.94-.78-5.75-.62-3.9.36-6.71,3.45-7.72,8.06s-2,9-2.83,13.52c-.32,1.75-1.12,2.27-2.83,2.19-2.68-.13-5.38,0-8.29,0" transform="translate(-7.39 -168.51)"/></g></g></g></g></svg>