<svg width="1387" height="1277" viewBox="0 0 1387 1277" xmlns="http://www.w3.org/2000/svg"><g transform="translate(2 2)" fill="none" fill-rule="evenodd"><path stroke="#CED5E5" stroke-width="3" stroke-linecap="round" stroke-linejoin="round" d="M.4 1111.3h282.5m310.8 0h419.9m-679.2 0h216.9m488.9 0h76.9m39.1 0h205.4"/><path d="M1.6 335.7c9.9-88.4 72.9-174.6 151.4-205.8 83.8-33.4 129.1 18.3 251.7 32.3C657 191 812.2 12 882.6 77.2c54.2 50.2-38.7 155.5 18.7 243.2 75.6 115.4 293.6 20.3 404.8 136.1 83.4 86.8 104.1 248.7 42.5 309.5-75.9 74.9-213.6-66-421.8-13.6-173.2 43.6-164.6 163-355.5 238.1-211 83-482.7 39.9-532.3-74.8C4.1 835 107.9 785.4 95.1 630 83.4 485.9-11.7 455.7 1.6 335.7z" fill="#F1F2F7" fill-rule="nonzero"/><path d="M298.4 943.8s-13.6-350.6-15.3-382.3c-1.7-31.8 6-54.8 66.3-55.6 60.4-.9 96.9 9.6 96.9 9.6s27.1-2.8 25.5 166.4c-1.6 169.2-15.1 216-15.1 216l84.1 1.2c20.3.3 36.6 16.8 36.6 37.1v8c0 20.5-16.6 37.1-37.1 37.1H335.7c-18.9 0-34.7-14.2-36.8-32.9l-.5-4.6z" fill="#FFC933" fill-rule="nonzero"/><path stroke="#FEAC00" stroke-width="4" stroke-linecap="round" stroke-linejoin="round" d="M318.1 509.1L337 905.5l205.6 3.4"/><path d="M494.2 373.2s-1.7-41.4-32.9-42.5c-31.2-1.1-30 23.8-39.1 29.5-9.1 5.7-31.7 8.5-33.4 28.9-1.7 20.4 2.8 31.7-6.8 39.7-9.6 8-24.9 14.5-23 30.3 1.9 15.8 17.3 22.4 6.8 38.3-10.5 15.9-23 18.4-22.1 32.6.9 14.2 14.2 38 14.2 38H419s94-13.3 100.8-23.5c6.8-10.2 22.2-29.8 24.8-43.1 2.6-13.3 5.7-34.4 1.9-53.7-2.3-11.5-14.2-32.2-15-53.5-1-21.3-30.5-30.6-37.3-21z" fill="#ED85C3" fill-rule="nonzero"/><path stroke="#FEAC00" stroke-width="4" stroke-linecap="round" stroke-linejoin="round" d="M337 905.5l72.6-36.4"/><path d="M1102.1 583.6s-23.7-39.5-26.5-65.6c-2.8-26.1 1.5-18.9 8.6-9.6 7 9.2 20.6 50.2 17.9 75.2zm5.5-35.4s15.3-36.3 34.8-46.7c19.5-10.4 28.5-14.6 33.6-10.8 5.1 3.8-17.4 24.4-29.3 33.3-11.9 8.9-39.1 24.2-39.1 24.2z" fill="#52CB96" fill-rule="nonzero"/><path d="M722.9 839.6s78.3 15.5 80.6 37.1c2.3 21.6-77.7 302.2-77.7 302.2s22.4 38 38 46.2c0 0 15.3 10.2 13.6 16.4-1.7 6.2-21 5.4-36.3 0-15.3-5.4-48.5-34.9-47.3-42 1.1-7.1 5.4-26.4 6-34 .6-7.7 7.4-199.1 33.8-233.5l-60.7-10.4c-.1 0-.1-66.8 50-82z" fill="#FFDFD7" fill-rule="nonzero"/><path d="M703.7 1173.3s-11.1 9.9-11.3 25.8c-.2 15.9 0 42.9 0 42.9h5.6l2.1-26.5s10.2 3 13 11.3c2.8 8.3 12.1 20 34 24.2 21.9 4.2 34.8 4.6 36.3-2.3 1.5-6.9-3.1-19.3-19.2-23.5 0 0-28.2 1.1-43.3-16.5-15.1-17.6-17.2-35.4-17.2-35.4z" fill="#37B37F" fill-rule="nonzero"/><path d="M692.2 874s83.3 12.3 85.5 33.8C780 929.3 700 1202 700 1202s22.4 38 38 46.2c0 0 15.3 10.2 13.6 16.4-1.7 6.2-21 5.4-36.3 0-15.3-5.4-48.5-34.9-47.3-42 1.2-7.1 5.4-26.4 6-34 .6-7.6 7.4-199.1 33.8-233.5l-60.7-10.4c0 .1-5-55.5 45.1-70.7zm50.3-124.1s56.2 4.7 69.5 37.9h-75.5s-5.5-16.5-3.2-25.4c2.3-8.9 9.2-12.5 9.2-12.5z" fill="#FFDFD7" fill-rule="nonzero"/><path d="M501.3 524.8s58.5 69.5 80.4 116c21.9 46.5 44.6 85.6 44.6 85.6s70.3 7.4 117.9 19.8c0 0-12.9 24.7-7.2 43.7l-163.2-17-72.5-220.6v-27.5z" fill="#FFB3DA" fill-rule="nonzero"/><path d="M463.9 515.5s-26 25.1-32.8 32.7c-6.8 7.6-27.2 40.1-33.6 58.2-6.4 18.1-37.8 147.4-35.5 161.8 2.3 14.4 8.3 19.7 8.3 19.7h211.5s-11.5-72.8-18.9-94.9c-7.4-22.1-31.7-107.7-31.7-107.7s-16.7-53.2-34-63.9l-33.3-5.9z" fill="#FFB3DA" fill-rule="nonzero"/><path stroke="#ED85C3" stroke-width="3" stroke-linecap="round" stroke-linejoin="round" d="M451.7 616.4l-23.8 112.3m107.1-130l41.2 156.5"/><path d="M554.6 754s26.9-1.3 48.6 8.2c21.8 9.6 31.2 17.9 31.2 25.6h-78.8c.1 0-9.1-12.6-1-33.8z" fill="#FFDFD7" fill-rule="nonzero"/><path stroke="#ED85C3" stroke-width="3" stroke-linecap="round" stroke-linejoin="round" d="M554.6 754l-143.3-27.9"/><path d="M414.9 823.7s-12.5 17.4-12.1 41.6c.4 24.2 6.8 33.6 65 43.8 58.2 10.2 176.9 40.1 176.9 40.1s50.3-91.8 82.4-112.6l-312.2-12.9z" fill="#37B37F" fill-rule="nonzero"/><path d="M235.5 836.9l-111.4 432.6m996.6-432.6l111.4 432.6" stroke="#283444" stroke-linecap="round" stroke-linejoin="round" stroke-width="7"/><path d="M1022.2 516.1c1.5 1.5 32.1 82.4 41.2 119.4m5.7-69.8l15 69.8m35.5-148.1s-12.5 60.7-15.9 83.9c-3.4 23.2-6.8 64.2-6.8 64.2m23.8 0s15.6-43.5 37.1-69.8" stroke="#52CB96" stroke-width="3" stroke-linecap="round" stroke-linejoin="round"/><circle fill="#FFB3DA" fill-rule="nonzero" cx="1066.4" cy="548.2" r="19.1"/><circle fill="#FFB3DA" fill-rule="nonzero" cx="1169.4" cy="552.3" r="19.6"/><path d="M1017.3 508.1s-24.1-6.7-24.1-21.9 13.2-3.1 13.2-3.1 12 12.2 15.4 21.4c0 0 1.9-29.1 12.6-33.6s15 5.9 14.7 8.6c-.3 2.7-1 8.7-7 14.6s-16 11.5-16 11.5 18-2 25.5 3.6c7.6 5.6 8.7 11.9-1.5 11.2-10.2-.7-28-5.2-28-5.2s-8.2 10.4-18.2 13.9-14.3-4.2-11.4-8.1c2.9-4 5.1-12.2 24.8-12.9z" fill="#FFC933" fill-rule="nonzero"/><path d="M1123 489.9c-2.1 1.2-4.6 1-6.5-.5-8-6.2-28.1-25.5-19.6-56.5 0 0 2.3-7.9 6.9-7.8 4.7.1 8.4 23.8 8.4 23.8s3.1-20.1 8.5-23.8c5.4-3.7 6.9-1.1 8.5 3.4 1.6 4.5.9 24.1.9 24.1s7.8-23.4 12.5-26.9 7.7 22.4 5.5 30c-2 7.3-7.7 24.5-25.1 34.2z" fill="#FFB3DA" fill-rule="nonzero"/><path d="M1049.8 590.7s-24.8-5.5-40.8-19.7c-16-14.2-14.9-17.6-12.5-19.8 2.5-2.3 40.3 16.6 53.3 39.5zm82.1 18.2s-9.7-33.1-4.4-48.6c5.3-15.5 10.6 29.7 7.2 42.9l-2.8 5.7zm8.7-17.1s15.8-14.7 34.3-13.9c18.5.8 2.1 14.2-5.5 15.3-7.7 1.1-31.9 4.5-31.9 4.5l3.1-5.9z" fill="#52CB96" fill-rule="nonzero"/><path fill="#CED5E5" fill-rule="nonzero" d="M944 679.5H699.5l12.8-186.7h244.5z"/><path d="M860.9 578c-2.3-10.5-11.6-17.9-22.3-17.9-14.2 0-25 12.9-22.4 26.9l33.7 183.9-37.4.5-2.7 16.4h96.7L860.9 578zM845 616.9c-5.3 1-10.7-4.6-12.1-12.5-1.4-7.9 1.7-15 7-15.9 5.3-1 10.7 4.6 12.1 12.5 1.4 7.9-1.7 14.9-7 15.9z" fill="#283444" fill-rule="nonzero"/><path fill="#CED5E5" fill-rule="nonzero" d="M121.5 787.8h1113.2v49.1H121.5zm319.5 342V981.2h-19.9v148.6l-86.7 42.5v11.9l96.6-30.6 96.7 30.6v-11.9z"/><path fill="#CED5E5" fill-rule="nonzero" d="M441 1126.6l50.4 5.3v13.4l-50.4-2.2z"/><circle fill="#283444" fill-rule="nonzero" cx="348.2" cy="1199.6" r="13.8"/><circle fill="#283444" fill-rule="nonzero" cx="513.9" cy="1199.6" r="13.8"/><path d="M673.4 1193.7s-11.1 9.9-11.3 25.8c-.2 15.9 0 42.9 0 42.9h5.6l2.1-26.5s10.2 3 13 11.3c2.8 8.3 12.1 20 34 24.2 21.9 4.2 34.8 4.6 36.3-2.3 1.5-6.9-3.1-19.3-19.2-23.5 0 0-28.2 1.1-43.3-16.5-15.1-17.6-17.2-35.4-17.2-35.4z" fill="#37B37F" fill-rule="nonzero"/><path d="M1151.5 635.5h-129.2l21.1 37c7.9 13.9 7.3 31.1-1.6 44.4-9.2 13.9-10.2 31.7-2.5 46.4 7.9 15 23.4 24.4 40.4 24.4h14.4c17 0 32.5-9.4 40.4-24.4 7.7-14.8 6.8-32.6-2.5-46.4-8.9-13.3-9.5-30.5-1.6-44.4l21.1-37z" fill="#FE8163" fill-rule="nonzero"/><path stroke="#FFF" stroke-width="3" stroke-linecap="round" stroke-linejoin="round" d="M441 1129.8l86.7 42.5M692.2 874s83.3 12.3 85.5 33.8c1.9 18-53.5 210.9-71.8 274.2"/><path d="M463.9 515.5s8.7-14.4 5.3-24.9c-3.4-10.6-9.1-13.1-5.9-25.8 3.2-12.7 1.6-19.7-1-24.5-2.5-4.8-8.9-18.7-3.8-34.2 5.1-15.5 32.8-18 47.9-11.3 0 0 13.6 20.2 14 50.1.4 29.9-11 45.4-15.3 48-4.3 2.6-18.9-3-18.9-3s6.4 25.3 10.8 31.6c.1-.2-16.9 4.2-33.1-6z" fill="#FFDFD7" fill-rule="nonzero"/><path stroke="#CED5E5" stroke-width="3" stroke-linecap="round" stroke-linejoin="round" d="M812.5 771.4l61.3-.5"/><path stroke="#FFF" stroke-width="3" fill="#CED5E5" fill-rule="nonzero" stroke-linecap="round" stroke-linejoin="round" d="M672.8.1h259.1v323.2H672.8z"/><path fill="#F1F2F7" fill-rule="nonzero" d="M700.6 27.9h203.5v267.6H700.6z"/><path d="M700.6 181.3c20.4 0 20.4 4 40.7 4 20.4 0 20.4-4 40.7-4 20.4 0 20.4 4 40.7 4 20.4 0 20.4-4 40.7-4 20.4 0 20.4 4 40.7 4m-203.5 10.5c20.4 0 20.4 4 40.7 4 20.4 0 20.4-4 40.7-4 20.4 0 20.4 4 40.7 4 20.4 0 20.4-4 40.7-4 20.4 0 20.4 4 40.7 4m-203.5 10.4c20.4 0 20.4 4 40.7 4 20.4 0 20.4-4 40.7-4 20.4 0 20.4 4 40.7 4 20.4 0 20.4-4 40.7-4 20.4 0 20.4 4 40.7 4m-203.5 10.5c20.4 0 20.4 4 40.7 4 20.4 0 20.4-4 40.7-4 20.4 0 20.4 4 40.7 4 20.4 0 20.4-4 40.7-4 20.4 0 20.4 4 40.7 4m-203.5 10.5c20.4 0 20.4 4 40.7 4 20.4 0 20.4-4 40.7-4 20.4 0 20.4 4 40.7 4 20.4 0 20.4-4 40.7-4 20.4 0 20.4 4 40.7 4m-203.5 10.4c20.4 0 20.4 4 40.7 4 20.4 0 20.4-4 40.7-4 20.4 0 20.4 4 40.7 4 20.4 0 20.4-4 40.7-4 20.4 0 20.4 4 40.7 4m-203.5 10.5c20.4 0 20.4 4 40.7 4 20.4 0 20.4-4 40.7-4 20.4 0 20.4 4 40.7 4 20.4 0 20.4-4 40.7-4 20.4 0 20.4 4 40.7 4m-203.5 10.4c20.4 0 20.4 4 40.7 4 20.4 0 20.4-4 40.7-4 20.4 0 20.4 4 40.7 4 20.4 0 20.4-4 40.7-4 20.4 0 20.4 4 40.7 4" stroke="#FFF" stroke-linecap="round" stroke-linejoin="round" stroke-width="3"/><circle fill="#FFF" fill-rule="nonzero" cx="832" cy="79.8" r="17"/></g></svg>