<svg width="1821" height="1321" viewBox="0 0 1821 1321" xmlns="http://www.w3.org/2000/svg"><g fill="none" fill-rule="evenodd"><path d="M246.2 441.3C218 245.6 373.2 71.1 581.8 143.7c221 76.9 204.3 251.5 303.9 308.2 99.5 56.7 473-138.3 664.4 34.3 108.2 97.5 112.6 180 45.4 292.5-47.6 79.7-181.3 211-510.2 211-235.4 0-303.2 105.1-478.5 240.2-226.8 174.7-365.1 66.8-283.5-217.4 76.7-267.3-34.2-272.6-77.1-571.2z" fill="#F1F2F7" fill-rule="nonzero"/><path d="M908.8 680.8s-169.1-16.6-208.8-8.6c-39.7 8 65.3 257.4 65.3 257.4l52.3-17-43.1-167.5s107.1 46.2 215.7 33.5c0 0-.8-72.9-81.4-97.8z" fill="#37B37F" fill-rule="nonzero"/><path d="M1254.5 1064l43.9 5.7s11.7 52.5-9.1 88.3c-20.8 35.8-45 53-72.9 60l-28.7-45.2 66.8-108.8z" fill="#283444" fill-rule="nonzero"/><path d="M690.5 755.3c52.3-77.3 55.1-138.6 55.2-145.3 7.8 5.8 11.6 9.2 11.6 9.2l502.2 413.4c22.1 156.8-113.1 180.1-113.1 180.1s-380.9-200.1-583.9-373.6c7.7-.5 75.8-6.7 128-83.8z" fill="#FFF" fill-rule="nonzero"/><path d="M1235.4 1012.7l24.1 19.8c22.1 156.8-113.1 180.1-113.1 180.1s-10.9-5.7-30.1-16.1" stroke="#F1F2F7" stroke-width="3"/><path d="M345.3 481c231.6 16.5 362.5 100.8 400.4 129-.2 6.7-3 68-55.2 145.3-52.2 77.2-120.3 83.3-128.1 83.8-.1-.1-.3-.2-.4-.4C359 665.1 345.3 481 345.3 481z" fill="#FE8163" fill-rule="nonzero"/><path fill="#FEAC00" fill-rule="nonzero" d="M1399.5 1016.6l-4.6-14.8-210.2-187.1-198.4-7 36.9 32.4z"/><path fill="#FFDFD7" fill-rule="nonzero" d="M813.1 939l7.1 36.7-24.9 7.5-18.1-39.7z"/><path fill="#FEAC00" fill-rule="nonzero" d="M1180.2 1314.3l-4.6 5.8-265.1-118.2-94.4-181.2 45.2 23.3z"/><path d="M1399.5 1016.6L1186 832l-162.7 8.1 212.4 172.3c0-.1 55.4-17.8 163.8 4.2zM1112.4 1191s28.5 75.8 67.8 123.3l-257.8-117-61.1-153.3 251.1 147z" fill="#FFC933" fill-rule="nonzero"/><path fill="#FEAC00" fill-rule="nonzero" d="M1246.1 1223.8l-6.3 7.1-223.3-149.3-103.9-91.4 33.5-34.4z"/><path d="M1171.6 1109.9s50.1 61.5 74.5 113.9l-220.9-151.4L946 955.9l225.6 154z" fill="#FFC933" fill-rule="nonzero"/><path d="M990.2 778.6s-12.1 18.2-205.8 6c0 0 30.6 109.4 40.6 162.1l-68.2 15S697 780.6 697.199 756c.201-24.6 18.601-34.1 67.701-46.9 49.1-12.8 141.4-27.7 141.4-27.7s60.9 14.8 73.9 41.2c12.9 26.5 10 56 10 56z" fill="#37B37F" fill-rule="nonzero"/><path fill="#FFDFD7" fill-rule="nonzero" d="M1085.7 513.9l1.7-31-15.7.1-14.7 25.3z"/><path d="M1087.1 489s26.6-8.3 39-40.5c12.5-32.2-17.6-52-40.2-46.4-22.6 5.6-40.9 55.6-42.5 61.8-1.6 6.3-12.4 34.6 43.7 25.1z" fill="#FFDFD7" fill-rule="nonzero"/><path d="M1070.6 412.4s-1.8-17.7 27.1-21.6c28.8-3.9 39.7 43.9 74.5 55.3 34.7 11.4 68.1 9.2 95.2 34.5 27.1 25.2 30.2 52.7 29.3 76.2-.8 23.5-22.3 4.6-30 26.5-7.7 21.9-29.7 10.4-34 19.1-4.3 8.7-27.9 49.7-42.4 23.5-14.5-26.2-13.8-52.1-45.4-66.1-23-10.1-48.7-44.9-57.7-70.8-3.4-9.8-1.1-19.8-.2-24.6 3.3-16.8 5.9-28.6 1.8-37.8-2.6-5.5-5.3-10.6-18.2-14.2z" fill="#4488FB" fill-rule="nonzero"/><path fill="#FFDFD7" fill-rule="nonzero" d="M943.2 439.9l-13.3-106.3 20.2-6.3 24.8 93.7 42.3 112-35.8 36.3z"/><path d="M1028.4 526.1s-29.3-55.6-50.9-105.2c0 0-9.6 11.8-37 19.7L975.2 576l53.2-49.9z" fill="#FFF9B3" fill-rule="nonzero"/><path d="M820.2 975.7l13.6 25.8-81.2 31.5s-4.8-14.1 42.7-49.8l24.9-7.5z" fill="#4488FB" fill-rule="nonzero"/><path d="M752.7 650.1s-18.8-13.3-28.8-16.7c-10-3.4 6.7 13.7 6.7 13.7s-21.9 0-34.5 2.5c-12.6 2.5 2.1 30.6 12.3 31.8 10.2 1.1 50.7-10.9 50.7-10.9s7.8-14.4-6.4-20.4zm197.4-322.8s11.6-14.6 12.6-19.4c.9-4.8-4.7-1.7-10.6 3.9 0 0 5.6-26.6 3.2-30.1-2.4-3.5-22.6-7.9-26.2 10.5-2.1 10.7.7 41.4.7 41.4s15.6 6.4 20.3-6.3z" fill="#FFDFD7" fill-rule="nonzero"/><path stroke="#52CB96" stroke-width="3" stroke-linecap="round" stroke-linejoin="round" d="M845.8 692.1l60.5-10.6"/><path fill="#FFDFD7" fill-rule="nonzero" d="M891 660l-131.9 10.6-6.4-20.5 126.1-26.3 89.1-49.2 28.5 32.6z"/><path d="M1087.2 532.4s-57.9 199.2-96.2 248.9c0 0-8.4-41.5-87.5-102 0 0 58.2-107.3 119.9-152.5 61.6-45.1 67.9-8.1 63.8 5.6z" fill="#FFF9B3" fill-rule="nonzero"/><path d="M983.8 562.8s-76 45.3-107.7 58c0 0 9.6 28.4 11 46l49.1-18.9 39.7-57.3 7.9-27.8z" fill="#FFF9B3" fill-rule="nonzero"/><path d="M1035.4 518.5s-29.2 16.3-51.6 44.2c0 0-47.8 28.4-71.6 40.5-23.9 12.1-36.1 17.5-36.1 17.5s6.2 15.2 11 46l75.7-29.5" stroke="#FBF17E" stroke-width="3" stroke-linecap="round" stroke-linejoin="round"/><path d="M557.3 309.3C537 276.5 496.9 258.8 462 258c-50.9-1.2-61.5 35.3-93.2 26.2-38.2-11-30.9-66.5-77.5-81.6-16.4-5.3-43-7.6-62.8 5.2-29.2 18.9-31.9 32.2-45.9 44-3.4 2.9-10.2 8.1-19.5 11.6-20 7.4-39.3 1.2-49.7-2.2-25.6-8.5-25-18.6-43.4-21.8-15.1-2.6-34.1 1-47.6 12.4-24.3 20.5-22 58.6-20.9 75.4.2 3.4.5 6.2.8 8.1h567.1c-3.3-11.7-9.8-22.3-12.1-26z" fill="#CED5E5" fill-rule="nonzero"/><circle fill="#FFC933" fill-rule="nonzero" cx="1223.5" cy="142.9" r="142.9"/><path d="M1811.8 747.6c-3.9-11.7-19.6-57.1-65.6-83.4-58.9-33.7-122.3-10.4-126.1-8.9-71.9 27.7-85.6 102.9-129.2 98-25.4-2.8-25.3-28.9-59.2-36.9-36-8.5-81.9 10-100.6 43.9-8.6 15.6-11 33.7-9.6 49.7h498.8c1.3-21.1-2.5-44.1-8.5-62.4z" fill="#CED5E5" fill-rule="nonzero"/></g></svg>